<?xml version="1.0" encoding="UTF-8"?>
<svg xmlns="http://www.w3.org/2000/svg" xmlns:xlink="http://www.w3.org/1999/xlink" version="1.1" viewBox="0 0 3236.02 4603.64">
  <defs>
    <style>
      .cls-1 {
        fill: none;
      }

      .cls-2 {
        fill: #c9c5c5;
      }

      .cls-3 {
        fill: url(#Namnlös_övertoning_17);
      }

      .cls-4 {
        fill: url(#Namnlös_övertoning_14);
      }

      .cls-5 {
        fill: url(#Namnlös_övertoning_11);
      }

      .cls-6 {
        clip-path: url(#clippath);
      }
    </style>
    <clipPath id="clippath">
      <rect class="cls-1" x="0" y="0" width="3236.02" height="4603.64"/>
    </clipPath>
    <linearGradient id="Namnlös_övertoning_11" data-name="Namnlös övertoning 11" x1="2863.15" y1="4429.71" x2="2863.15" y2="506.55" gradientUnits="userSpaceOnUse">
      <stop offset=".5" stop-color="#c9c5c5"/>
      <stop offset=".91" stop-color="#03f9be"/>
    </linearGradient>
    <linearGradient id="Namnlös_övertoning_14" data-name="Namnlös övertoning 14" x1="3256.52" y1="4725.66" x2="2549.31" y2="714.87" gradientUnits="userSpaceOnUse">
      <stop offset=".17" stop-color="#c9c5c5"/>
      <stop offset=".83" stop-color="#03f9be"/>
    </linearGradient>
    <linearGradient id="Namnlös_övertoning_17" data-name="Namnlös övertoning 17" x1="2828.64" y1="1079" x2="2828.64" y2="4651.23" gradientUnits="userSpaceOnUse">
      <stop offset=".4" stop-color="#c9c5c5"/>
      <stop offset="1" stop-color="#03f9be"/>
    </linearGradient>
  </defs>
  <!-- Generator: Adobe Illustrator 28.6.0, SVG Export Plug-In . SVG Version: 1.2.0 Build 709)  -->
  <g>
    <g id="Lager_1">
      <g class="cls-6">
        <rect class="cls-2" x="0" y="-62.89" width="3326.93" height="4603.17"/>
        <path class="cls-5" d="M-264.9,1074.84c156.23-193.49,702.27-191.9,899.56-123.68,171.06,59.15,309.85,183.85,390.8,351.14,4.78,9.89,9.43,19.54,13.98,28.96,64.65,134.1,97.9,199.8,146.71,227.62,55.37,31.57,166.57,36.22,371.82,15.56,148.47-14.94,289.75,29.82,408.56,129.47,81.95,68.73,152.02,163.44,202.63,273.89,47.18,102.97,76.51,216.9,84.83,329.49,11.91,161.14-47.31,578.73-357.96,1005.92,0,0,561.46,338.44,878,312.61,316.54-25.83,1302.7-563.58,1302.7-563.58-87.18-98.79,971.63-778.07,957.24-939.01-10.05-112.44,383.43-67,413.28-176.25,32.02-117.2-54.52-86.03,15.19-167.14,101.08-117.59-1419.51-410.98-1270.59-420.3,205.89-12.88,314.86-35.5,364.38-75.63,43.65-35.37,65.8-105.59,107.85-248.39,2.96-10.03,5.98-20.31,9.1-30.84,52.74-178.19,169.46-323.74,328.66-409.84,183.62-99.3,413.66-115.4,647.72-45.35l341.65,3862.01-6129.38,18.23-126.73-3354.87Z"/>
        <path class="cls-4" d="M2913.18,3574.53c36.86-33.05,68.25-101.72,101.48-174.41,39.81-87.08,84.92-185.79,158.86-268.74,90.76-101.82,209.13-159.88,351.84-172.56,49.93-4.44,104.65-3.66,162.59-2.83,125.83,1.8,282.46,4.02,346.68-58.47,41.07-39.96,41.95-110.02,42.23-133.05,1.43-114.06,22.7-211.99,63.23-291.05,40.05-78.14,99.52-138.03,171.98-173.22,126.82-61.57,284.96-42.99,402.9,47.34,96.24,73.71,174.88,103.3,221.49,83.32,32.85-14.09,66.11-57.73,93.65-122.9,35.93-85.03,62.27-204.18,78.3-354.16,14.6-136.59,56.44-258.17,124.35-361.37,63.22-96.07,147.92-174.8,251.76-234.02,139.24-79.4,309.82-121.27,493.8-121.27,2.8,0,5.61.01,8.42.03,174.23,1.21,347.91,38.98,502.26,109.25l-2540.46,3257.23-4546.13-24.31-216.12-3232.92c154.35-70.26,328.03-108.04,502.26-109.25,2.81-.02,5.62-.03,8.42-.03,183.98,0,354.57,41.87,493.8,121.27,103.84,59.22,188.54,137.95,251.75,234.02,67.91,103.2,109.75,224.78,124.35,361.37,17.54,164.13,60.12,649.05,393.44,393.74,117.94-90.33,276.08-108.91,402.9-47.34,72.46,35.18,131.93,95.08,171.98,173.22,40.53,79.07,61.8,176.99,63.23,291.05.29,23.02,1.17,93.09,42.23,133.05,64.22,62.49,220.85,60.27,346.68,58.47,57.93-.83,112.65-1.61,162.59,2.83,142.71,12.68,261.08,70.74,351.84,172.56,73.94,82.95,119.05,181.65,158.86,268.74,33.23,72.7,64.62,141.36,101.48,174.41,4.98,4.46,28.81,25.7,74.11,25.7s70.36-19.77,76.98-25.7Z"/>
        <path class="cls-3" d="M2612.15,3986.79c-112.2-137.79-372.8-350.72-857.64-228.84-353.5,88.88-477.1,35.49-553.91-72.03-92.04-128.83-82.51-237.95-69.31-388.98,12.91-147.69,27.54-315.08-52.43-522.53-76.64-198.81-206.13-367.5-384.89-501.39-136.76-102.43-298.84-182.28-481.74-237.34-115.9-34.89-147.96-74.53-161.99-101.31-22.44-42.84-25.02-109.3-28.01-186.26-1.73-44.54-3.69-95.02-9.81-148.23-21.97-190.79-147.89-371.79-320.8-461.12-161.13-83.24-340.33-79.43-504.59,10.74L-110.51,4612.4l2857.67,38.83c39.99-82.6,49.01-195.82,25.42-318.8-24.06-125.39-81.04-248.14-160.42-345.63ZM5965.65,1138.77c-172.91,89.33-298.83,270.33-320.8,461.12-6.13,53.21-8.09,103.69-9.81,148.23-2.99,76.96-5.57,143.43-28.01,186.26-14.03,26.78-46.09,66.42-161.99,101.31-182.9,55.06-344.98,134.91-481.74,237.34-178.75,133.88-308.25,302.57-384.89,501.39-79.97,207.45-65.34,374.84-52.43,522.53,13.2,151.03,22.74,260.15-69.3,388.98-76.81,107.52-200.41,160.91-553.91,72.03-484.83-121.88-745.44,91.05-857.64,228.84-79.39,97.5-136.36,220.24-160.42,345.63-23.6,122.98-14.57,236.2,25.42,318.8h2857.67l702.45-3501.71c-164.26-90.17-343.46-93.99-504.59-10.74Z"/>
      </g>
    </g>
  </g>
</svg>