<svg width="54" height="46" viewBox="0 0 54 46" fill="none" xmlns="http://www.w3.org/2000/svg">
<g clip-path="url(#clip0_14_174)">
<path d="M42.1105 23.9085C42.1272 25.4835 41.9652 27.0554 41.6276 28.5946C41.2413 30.0291 40.6618 31.7505 39.0199 32.5156C36.7984 33.5676 33.8043 33.6632 31.8727 33.6632C27.8161 33.6632 18.7373 34.0457 16.2261 32.8981C15.3521 32.5449 14.5785 31.9857 13.9725 31.269C13.3665 30.5523 12.9465 29.6999 12.7491 28.7859C12.4352 27.1091 12.2095 25.4172 12.073 23.7173C11.9764 22.0915 11.6866 19.2225 14.0047 16.736C14.7864 15.8693 15.6986 15.1273 16.709 14.5364C18.6177 13.4384 20.7797 12.8456 22.9869 12.815C25.4298 12.6413 27.8807 12.6094 30.3273 12.7193C32.2126 12.8079 34.0713 13.1953 35.8326 13.8669C37.4566 14.434 38.9156 15.3862 40.0823 16.6403C40.88 17.5449 41.4435 18.628 41.7242 19.7963C42.0725 21.138 42.203 22.5262 42.1105 23.9085V23.9085ZM51.6723 27.8295C51.0576 27.652 50.3967 27.7235 49.8352 28.0284C49.2737 28.3333 48.8575 28.8466 48.6782 29.4553L46.5534 29.264C46.7466 27.7339 47.1329 26.6819 47.2295 25.343L49.0646 25.2474C49.3543 27.0644 51.1894 27.0644 52.9279 26.6819C54.6664 26.2994 54.1835 22.0915 52.7348 21.9002C51.6723 21.7089 49.7407 21.6133 49.2577 23.9085L47.3261 24.0042C47.4226 22.474 47.4226 21.9002 47.4226 20.5613L49.0646 20.0832C49.5152 20.6089 50.1252 20.9767 50.8039 21.1318C51.4825 21.2868 52.1935 21.2209 52.8313 20.9439C54.5698 20.2744 53.7972 15.4927 51.4792 15.8753C49.3543 16.1622 48.5817 17.3098 48.6782 18.7443L47.0363 19.3181C46.9636 18.1885 46.6683 17.0838 46.1671 16.0665L47.6158 15.1102C49.3543 16.736 53.8938 14.8233 51.6723 11.4761C49.9338 8.89397 45.8773 11.9543 46.8431 14.0582L45.5876 14.9189C45.1046 14.5364 44.5251 13.4844 43.7525 12.7193L44.7183 11.3805C46.65 12.2412 49.4509 9.65904 48.5816 7.65073C48.4207 7.31375 48.1921 7.01276 47.9098 6.76613C47.6275 6.5195 47.2974 6.33239 46.9397 6.21622C44.0422 5.16424 42.4969 9.75468 43.5593 10.6154L42.4969 12.0499C41.6001 11.2171 40.5928 10.5092 39.5028 9.94595V9.94595L40.372 8.22453C42.69 9.37214 45.5876 5.06861 42.9798 3.25156C39.5994 1.43451 37.3779 6.50312 39.213 7.74636L38.1506 9.46778C37.2398 9.0042 36.2626 8.68167 35.2531 8.51143L35.5428 6.79002C37.7643 6.88565 38.3438 4.01663 38.054 2.77339C37.9274 2.15138 37.569 1.59937 37.0499 1.22722C36.5309 0.855077 35.8894 0.69008 35.2531 0.765073C32.6453 0.860707 31.8727 6.02495 34.0941 6.50312L33.8043 8.22453C32.6 7.94514 31.3705 7.78497 30.1341 7.74636V5.73805C32.259 5.73805 33.418 0 29.8444 0C26.5605 0 26.1742 5.73805 28.6854 5.83368L28.782 7.842C28.3956 7.842 26.8503 7.842 25.1118 7.93763L24.822 5.92931C26.8503 5.64241 27.0435 1.05198 25.305 0.286902C24.8228 0.103679 24.2999 0.0513968 23.7905 0.135468C23.281 0.21954 22.8035 0.436909 22.4074 0.765073C21.2484 1.91268 21.4416 6.12058 23.5664 6.02495L23.7596 7.93763C22.6497 7.96711 21.5473 8.12764 20.4758 8.4158L19.8963 6.40748C21.7314 5.92931 21.8279 0.382536 18.4475 0.956341C14.8739 1.53015 16.5158 7.36383 18.7373 6.69439L19.2202 8.7027C18.0879 8.92532 16.9858 9.27838 15.9363 9.75468L15.1637 7.74636C16.6124 6.98129 16.0329 3.06029 14.2944 2.58212C13.5787 2.42198 12.8286 2.52849 12.1872 2.88131C11.5458 3.23413 11.0582 3.80853 10.8174 4.4948C10.6242 5.45114 11.5901 8.89397 13.8115 8.51143L14.4876 10.3285C13.4143 10.8424 12.4087 11.4847 11.4935 12.2412L10.3345 10.5198C10.846 9.86746 11.0877 9.04686 11.0106 8.22453C10.9487 7.79895 10.7962 7.39125 10.5631 7.02851C10.3299 6.66577 10.0216 6.35628 9.65838 6.12058C9.17188 5.8596 8.61763 5.74876 8.06697 5.80232C7.5163 5.85588 6.99443 6.07139 6.56852 6.42112C6.1426 6.77084 5.83213 7.23878 5.67707 7.7647C5.52201 8.29061 5.52945 8.85045 5.69844 9.37214C5.98819 10.5198 7.7267 12.1455 9.17546 11.2848L10.5276 13.0062C9.93796 13.573 9.3893 14.1802 8.88571 14.8233L6.76087 13.6757C6.7514 12.7903 6.48302 11.9267 5.9882 11.1892C5.02236 10.1372 2.70435 9.27651 1.73851 11.8586C0.965838 14.0582 1.54534 15.3971 3.47702 15.684C3.92687 15.7662 4.39012 15.7395 4.82735 15.6063C5.26457 15.4731 5.66282 15.2373 5.9882 14.9189L8.30621 16.0665C7.93165 16.9628 7.64068 17.8911 7.43695 18.8399L5.21552 18.553C5.22996 18.2559 5.18311 17.959 5.07783 17.6803C4.97255 17.4017 4.81105 17.1473 4.60318 16.9325C4.39531 16.7177 4.14543 16.5471 3.86878 16.4311C3.59214 16.3151 3.29452 16.2562 2.9941 16.2578C2.63385 16.198 2.26446 16.2226 1.91555 16.3296C1.56664 16.4367 1.24792 16.6232 0.98498 16.8743C0.722036 17.1253 0.522179 17.4339 0.401443 17.7753C0.280707 18.1166 0.242454 18.4813 0.289751 18.8399C0.289751 21.0395 1.44876 21.3264 2.51118 21.5177C2.77122 21.5939 3.04421 21.6169 3.31353 21.5854C3.58285 21.5539 3.84287 21.4684 4.07778 21.3342C4.31268 21.2 4.51756 21.0199 4.67995 20.8048C4.84234 20.5898 4.95883 20.3442 5.02236 20.0832L7.05062 20.4657C6.92637 21.5452 6.86188 22.6307 6.85745 23.7173L4.82919 23.9085C4.72307 23.327 4.38992 22.8103 3.90184 22.4702C3.41377 22.1301 2.81007 21.994 2.22143 22.0915C1.15901 22.1871 0 22.6653 0 24.6736C0 28.0208 4.34627 27.5426 4.82919 25.2474L6.85745 24.9605C6.95403 26.2994 6.95403 26.8732 7.05062 28.4033L5.21552 28.8815C4.63602 27.7339 3.76677 27.447 2.31801 27.7339C1.06242 28.0208 0.193168 28.8815 0.77267 31.2724C1.44876 33.9501 5.79503 32.3243 5.40869 30.1247L7.24378 29.6466C7.472 30.7245 7.79518 31.7805 8.20962 32.8025L6.5677 33.5676C5.79503 32.6112 4.44285 32.6112 2.9941 33.2807C1.54534 33.9501 2.22143 37.6798 4.34627 37.6798C5.9882 37.6798 7.1472 37.0104 6.76087 34.7152L8.69254 33.9501C9.18197 35.0153 9.91796 35.9514 10.8409 36.6825C11.7638 37.4135 12.8477 37.919 14.0047 38.158L13.7149 39.5925C13.037 39.6141 12.3899 39.8777 11.8928 40.3347C11.3958 40.7917 11.0825 41.4112 11.0106 42.079C10.9386 42.3695 10.9303 42.672 10.9862 42.966C11.0422 43.26 11.1611 43.5387 11.335 43.7833C11.5089 44.028 11.7337 44.2329 11.9943 44.3843C12.2548 44.5357 12.5451 44.6301 12.8456 44.6611C14.391 45.0437 15.8397 45.0437 16.3227 42.9397C16.4374 42.3917 16.3784 41.8219 16.1537 41.3083C15.9289 40.7948 15.5494 40.3625 15.0671 40.0707C15.2319 39.5702 15.361 39.0589 15.4534 38.5405C16.6855 38.8466 17.9499 39.0071 19.2202 39.0187L19.1236 40.8358C16.9022 40.9314 16.8056 43.5135 17.2885 44.6611C17.868 46.0956 21.2484 46.2869 21.9245 45.0437C22.6006 43.8004 22.6972 41.4096 20.6689 41.027L20.7655 39.1143C22.3109 39.21 23.4699 39.21 25.2084 39.21V41.1227C24.9103 41.1289 24.6164 41.1932 24.3434 41.3119C24.0704 41.4306 23.8237 41.6014 23.6174 41.8146C23.4111 42.0277 23.2493 42.279 23.1411 42.5541C23.0329 42.8292 22.9805 43.1227 22.9869 43.4179C22.8904 45.5218 24.146 46 25.981 46C27.2366 46 28.782 45.7131 28.782 43.5135C28.8164 42.8931 28.6026 42.2841 28.1868 41.8187C27.771 41.3533 27.1867 41.0689 26.5605 41.027V39.0187C28.012 39.0505 29.4639 38.9866 30.9068 38.8274L31.1 40.7401C28.3956 41.027 28.4922 45.8087 32.1624 45.4262C36.1223 45.0437 35.5428 40.4532 32.4522 40.5489L32.259 38.6362C32.6453 38.6362 35.5428 38.4449 36.7018 38.2536L37.0882 39.8794C36.6098 40.1378 36.2179 40.5288 35.9606 41.0044C35.7033 41.4801 35.5917 42.0197 35.6394 42.5572C35.8326 43.9917 36.7018 45.0437 39.1164 44.4699C42.2071 43.7048 41.531 39.21 38.3438 39.5925L37.8608 37.9667C39.0033 37.705 40.1316 37.3858 41.2413 37.0104L42.3037 38.6362C40.9515 39.7838 41.531 43.3222 44.2354 43.131C44.8041 43.1227 45.3572 42.9449 45.8223 42.6208C46.2875 42.2966 46.6432 41.8412 46.8431 41.3139C47.0249 40.8518 47.0704 40.348 46.9744 39.8612C46.8785 39.3744 46.645 38.9246 46.301 38.564C45.9571 38.2034 45.5169 37.9469 45.0315 37.8243C44.5462 37.7016 44.0357 37.7178 43.5593 37.8711L42.5935 36.1497C43.0764 35.7672 44.0422 35.0021 44.4285 34.6195L46.2636 35.6715C45.3944 38.8274 49.8372 40.4532 51.0928 36.9148C52.2518 33.6632 48.4851 32.3243 46.9397 34.3326L45.1046 33.3763C45.491 32.5156 46.0705 31.6549 46.4568 30.6029L48.5816 30.7942C48.5816 33.0894 51.9621 33.3763 52.7348 32.5156C53.7006 31.368 54.2801 28.3077 51.6723 27.8295" fill="white"/>
</g>
<defs>
<clipPath id="clip0_14_174">
<rect width="54" height="46" fill="white"/>
</clipPath>
</defs>
</svg>
