<svg width="275" height="110" viewBox="0 0 275 110" fill="none" xmlns="http://www.w3.org/2000/svg">
<g clip-path="url(#clip0_72_2649)">
<mask id="mask0_72_2649" style="mask-type:luminance" maskUnits="userSpaceOnUse" x="0" y="0" width="275" height="110">
<path d="M275 0H0V110H275V0Z" fill="white"/>
</mask>
<g mask="url(#mask0_72_2649)">
<path d="M83.3067 3.12089C83.1909 3.18728 83.0088 3.28688 82.8764 3.41967C80.8073 5.37832 78.7383 7.32037 76.6858 9.29563C73.9878 11.8684 71.3063 14.4412 68.6248 17.0473C66.3406 19.2549 64.0729 21.4957 61.7887 23.72C61.5735 23.9357 61.3087 24.0851 61.0273 24.2843C60.8949 21.5123 60.7459 18.8731 60.6466 16.2173C60.5639 13.6445 60.5473 11.0551 60.4645 8.48229C60.4314 7.53616 60.3156 6.60663 60.2163 5.52771C59.9845 5.6771 59.7528 5.74349 59.6204 5.89288C57.9651 7.96773 56.3265 10.0426 54.6878 12.134C53.2312 13.9765 51.7911 15.8355 50.3345 17.6946C48.7621 19.6865 47.1896 21.6949 45.6171 23.6868C44.1109 25.5956 42.5715 27.4879 41.1149 29.4299C40.5687 30.1437 39.7576 30.6914 39.8569 31.8533C40.4032 37.9617 40.8666 44.0866 41.3632 50.195C41.4625 51.3237 41.5618 52.4524 41.6777 53.7471C45.3523 49.8796 48.8945 46.1449 52.5691 42.294C53.4464 46.5432 54.274 50.5933 55.1347 54.826C57.8824 51.888 60.5308 49.0663 63.2288 46.1947C66.622 50.7427 69.949 55.2078 73.3753 59.7891C76.7024 40.7669 79.9797 21.9771 83.2902 3.12089M124.356 104.788C130.398 91.1275 136.39 77.5331 142.448 63.8392C141.256 64.0881 140.164 64.3039 139.071 64.5529C138.492 64.6857 137.764 64.7687 137.383 65.1505C133.742 68.7026 130.166 72.3211 126.574 75.9231C125.896 76.6036 125.234 77.2842 124.505 78.0311C123.727 72.6365 122.983 67.3913 122.221 62.1295C121.973 62.1295 121.758 62.0963 121.543 62.1295C118.017 62.8432 114.491 63.5404 110.966 64.2873C110.717 64.3371 110.469 64.6691 110.353 64.9347C110.072 65.5986 109.873 66.2958 109.625 66.9763C104.759 80.1557 99.8756 93.3352 95.0092 106.515C94.8933 106.83 94.794 107.162 94.6285 107.61C95.1085 107.394 95.4065 107.278 95.7044 107.129C102.011 104.241 108.334 101.352 114.64 98.4642C115.137 98.2318 115.484 98.2152 115.948 98.5804C117.487 99.7589 119.076 100.871 120.649 102.016C121.89 102.913 123.115 103.826 124.373 104.772M252.653 55.5896C250.684 55.9713 248.797 56.3033 246.926 56.7017C246.728 56.7349 246.529 57.0503 246.463 57.266C246.099 58.4778 245.784 59.7061 245.453 60.9178C241.563 75.0101 237.674 89.1025 233.767 103.178C233.436 104.39 233.089 105.602 232.708 106.963C233.006 106.78 233.155 106.714 233.287 106.614C238.402 103.245 243.516 99.8751 248.615 96.4723C249.078 96.1569 249.393 96.1238 249.839 96.4723C251.76 98.0326 253.696 99.5597 255.633 101.087C256.626 101.884 257.652 102.664 258.695 103.477C264.157 88.3555 269.57 73.3502 275.016 58.2122C272.533 58.9591 270.149 59.6231 267.815 60.37C267.252 60.5526 266.69 60.9344 266.309 61.3825C263.777 64.4865 261.294 67.6403 258.778 70.7774C258.48 71.1592 258.132 71.4912 257.718 71.9394C256.013 66.3954 254.358 61.0008 252.67 55.5398M196.905 53.9629C197.352 52.5852 197.782 51.3569 198.147 50.0954C199.206 46.3773 200.216 42.6425 201.308 38.9244C202.798 33.8784 204.354 28.8324 205.877 23.8029C206.853 20.5662 207.846 17.3294 208.823 14.0761C209.005 13.4619 209.104 12.8312 209.286 12.0344C207.317 12.7482 205.612 13.4785 203.824 13.9765C202.285 14.408 201.225 15.3708 200.199 16.4663C198.759 18.01 197.286 19.5039 195.813 21.031C195.697 21.1471 195.631 21.2965 195.515 21.4127C194.34 22.5082 193.164 23.6038 192.072 24.6163C190.483 19.4541 188.844 14.1591 187.222 8.86406C186.908 8.86406 186.643 8.81426 186.411 8.86406C184.607 9.36202 182.803 9.92638 180.998 10.3911C180.535 10.5073 180.336 10.7231 180.204 11.1215C177.059 20.616 173.931 30.1271 170.786 39.6216C169.495 43.5057 168.154 47.3566 166.846 51.2407C166.581 52.0042 166.35 52.7844 166.118 53.5645C166.184 53.6143 166.267 53.6641 166.333 53.6973C166.631 53.5811 166.929 53.4981 167.21 53.3487C172.59 50.5933 177.986 47.8546 183.349 45.0826C183.928 44.7838 184.342 44.7008 184.822 45.2485C185.12 45.5805 185.55 45.7963 185.914 46.0619C187.719 47.3732 189.523 48.7011 191.344 49.9958C193.131 51.2739 194.935 52.552 196.922 53.9463M202.417 52.4524C202.649 52.4192 202.748 52.4358 202.847 52.4026C211.488 49.6472 220.145 46.9084 228.785 44.1364C229.166 44.0036 229.563 43.6385 229.778 43.2733C232.94 37.9617 236.035 32.6003 239.246 27.3219C240.024 26.0438 240.14 25.0313 239.577 23.637C237.442 18.2424 235.455 12.798 233.403 7.37017C233.271 7.0216 233.204 6.60663 232.658 6.68962C231.384 6.87221 230.093 7.0216 228.801 7.20418C226.65 7.51956 224.481 7.86813 222.33 8.16691C220.227 8.46569 218.109 8.71467 215.99 9.03005C215.692 9.07984 215.278 9.37862 215.179 9.6608C214.633 11.1215 214.103 12.5988 213.673 14.0927C211.024 23.1556 208.393 32.2351 205.744 41.3146C204.668 44.9996 203.543 48.6679 202.417 52.469M156.948 104.008C162.824 90.0984 168.634 76.338 174.444 62.6109C172.606 62.6109 170.852 62.5943 169.114 62.6274C168.866 62.6274 168.584 62.8764 168.386 63.0922C167.227 64.2873 166.085 65.5156 164.926 66.7107C162.99 68.7192 161.036 70.7276 159.083 72.7361C158.405 73.4332 157.676 74.0972 156.964 74.7611C155.409 69.8645 153.853 64.9181 152.28 59.9385C150.559 60.3866 148.854 60.8016 147.166 61.2664C146.983 61.3161 146.818 61.5651 146.735 61.7643C144.434 67.5075 142.134 73.2507 139.849 78.9938C136.671 87.011 133.493 95.0448 130.315 103.062C129.984 103.892 129.703 104.755 129.355 105.701C130.084 105.369 130.679 105.12 131.259 104.855C134.983 103.178 138.707 101.502 142.432 99.8253C144.352 98.9621 146.255 98.1156 148.192 97.2857C148.407 97.1861 148.771 97.1529 148.904 97.2691C150.327 98.431 151.734 99.6261 153.141 100.821C154.366 101.85 155.574 102.879 156.931 104.025M41.4459 5.26213C41.1149 5.42812 40.9659 5.49451 40.8335 5.56091C36.712 7.73534 32.5739 9.90978 28.4524 12.0842C25.175 13.8105 21.9142 15.5368 18.6369 17.2464C14.6974 19.3213 10.758 21.4127 6.80197 23.4212C6.05712 23.8029 5.87504 24.0685 6.23919 24.8653C9.98001 33.0319 13.6712 41.2316 17.3954 49.4148C17.6437 49.9792 17.6934 50.444 17.4948 51.0415C16.0216 55.4236 14.5981 59.8057 13.1581 64.1877C13.0753 64.4533 13.0091 64.7355 12.9098 65.1505C13.125 65.0011 13.2243 64.9513 13.307 64.8849C21.219 58.8595 29.131 52.8176 37.0761 46.8088C37.5562 46.4437 37.4568 46.1283 37.3079 45.6967C35.2554 39.6216 33.236 33.5464 31.1835 27.4879C31.018 26.9899 31.0345 26.5749 31.2663 26.0936C32.9546 22.6742 34.6264 19.2217 36.2982 15.7857C37.9865 12.3332 39.6749 8.88066 41.4459 5.24553M148.572 43.7547C148.721 43.9372 148.87 44.1032 149.003 44.2692C150.642 46.7258 152.28 49.1825 153.935 51.6391C154.051 51.8217 154.349 52.0374 154.531 52.0042C157.478 51.6557 160.424 51.2407 163.387 50.9087C164.065 50.8257 164.33 50.6099 164.363 49.9128C164.678 35.9864 165.025 22.0601 165.357 8.13371C165.357 7.90133 165.34 7.66895 165.323 7.40337C165.092 7.41997 164.926 7.40337 164.761 7.45316C162.543 8.01752 160.325 8.59848 158.107 9.16284C155.044 9.94298 151.999 10.7895 148.904 11.4701C148.059 11.6527 147.679 11.968 147.397 12.7482C142.912 25.2138 138.393 37.6629 133.874 50.112C133.377 51.4731 132.897 52.8508 132.417 54.2285C132.484 54.3115 132.566 54.3779 132.633 54.4443C137.996 50.9917 143.127 47.1408 148.572 43.7381M97.1444 61.1336C97.6079 61.0008 97.9886 60.9178 98.3197 60.7684C101.564 59.2745 104.808 57.7806 108.036 56.2369C108.268 56.1207 108.483 55.7058 108.499 55.4236C108.582 53.9463 108.582 52.4524 108.648 50.9751C108.847 46.0287 109.062 41.0823 109.261 36.1192C109.476 30.957 109.658 25.7782 109.906 20.616C110.006 18.6407 110.254 16.6655 110.419 14.6902C110.486 13.9433 110.502 13.1797 110.552 12.3996C110.403 12.3996 110.287 12.3996 110.188 12.4328C107.606 13.2793 105.04 14.1259 102.458 14.989C99.8425 15.8687 97.2107 16.7319 94.5788 17.6116C94.1485 17.7444 93.7678 17.7776 93.5526 18.3586C92.1457 22.1265 90.6559 25.8778 89.1828 29.6457C87.4117 34.1606 85.624 38.6422 83.8695 43.1571C81.7839 48.4853 79.748 53.8301 77.6789 59.1749C77.4307 59.8057 77.232 60.4364 77.0168 61.0838C77.1162 61.1668 77.2155 61.2332 77.3313 61.3161C83.0584 57.266 88.7855 53.216 94.5954 49.1161C95.4396 53.133 96.2672 57.1001 97.1279 61.1834M240.289 54.1289C240.719 53.9463 240.951 53.8467 241.199 53.7471C244.94 52.2698 248.681 50.7925 252.422 49.3152C257.437 47.3234 262.436 45.3149 267.468 43.3397C267.948 43.1571 268.097 42.9081 267.981 42.4434C267.766 41.5968 267.55 40.7669 267.352 39.9203C266.044 34.5755 264.703 29.2141 263.429 23.8693C263.247 23.0892 262.999 22.1265 263.263 21.4459C264.207 19.0723 265.349 16.7651 266.425 14.4412C267.716 11.6527 269.024 8.86406 270.331 6.09207C270.563 5.5941 270.762 5.09614 270.977 4.58158C270.927 4.51518 270.894 4.46539 270.844 4.39899C260.565 8.15031 250.27 11.885 239.991 15.6364C240.206 16.2173 240.372 16.7319 240.57 17.2298C242.904 22.9066 245.238 28.5668 247.588 34.2436C248.052 35.3557 248.896 36.501 248.846 37.5799C248.797 38.7086 247.853 39.7876 247.29 40.8831C244.99 45.2485 242.672 49.614 240.289 54.1455M47.6696 60.2538C47.4379 60.2206 47.3551 60.1874 47.2889 60.204C41.5618 61.4655 35.8182 62.727 30.0911 63.9885C23.3046 65.4824 16.5016 66.9763 9.71518 68.4038C9.10274 68.5366 8.85446 68.8022 8.62273 69.3002C6.63645 73.6988 4.61707 78.0643 2.61424 82.463C1.72041 84.4382 0.859694 86.4135 -0.0175781 88.4053C0.0486311 88.4551 0.098288 88.5049 0.147945 88.5547C5.04743 87.0276 9.94691 85.5005 14.9292 83.9403C14.1843 92.3558 13.456 100.622 12.7277 108.921C13.0256 108.921 13.1912 108.955 13.3401 108.921C15.3926 108.39 17.4286 107.793 19.4976 107.361C20.11 107.228 20.2424 106.913 20.3583 106.481C20.5569 105.734 20.7059 104.954 20.8714 104.191C21.9142 99.7091 22.957 95.2274 23.9998 90.7457C24.7281 87.5422 25.4564 84.3386 26.1682 81.1351C26.3171 80.4545 26.6647 80.1059 27.3434 79.9068C29.4786 79.2594 31.5973 78.5789 33.716 77.8651C34.1464 77.7157 34.5933 77.4169 34.8747 77.0518C37.4899 73.6822 40.0556 70.2795 42.6377 66.8933C44.2929 64.7023 45.9647 62.5279 47.6862 60.2372M188.364 105.685C188.629 91.1939 188.91 76.67 189.175 62.1461C189.059 62.1461 189.01 62.1295 188.96 62.1461C184.971 63.9222 180.982 65.665 177.026 67.4909C175.784 68.0552 174.94 68.9682 174.444 70.3791C173.07 74.396 171.497 78.3465 170.024 82.3302C168.237 87.1438 166.449 91.9575 164.645 96.7545C163.337 100.257 161.98 103.743 160.656 107.228C160.325 108.091 160.06 108.955 159.745 109.818C159.845 109.884 159.96 109.951 160.06 110.017C161.881 108.672 163.668 107.278 165.539 105.983C167.442 104.672 169.445 103.494 171.382 102.232C173.285 101.004 175.172 99.7257 177.109 98.4476C177.853 100.921 178.549 103.278 179.244 105.618C179.525 106.515 179.84 107.411 180.154 108.357C182.952 107.444 185.567 106.581 188.364 105.668M62.997 63.2582C59.67 62.4615 56.5085 61.6481 53.3471 60.951C52.5691 60.785 51.7249 60.2372 50.9304 61.2995C49.2752 63.4906 47.4379 65.5322 45.6833 67.6569C41.9922 72.0887 38.2845 76.5206 34.6098 80.9525C34.3781 81.2347 34.2126 81.6164 34.1298 81.965C33.9146 82.8613 33.7822 83.7909 33.6002 84.7038C32.4084 90.5964 31.2166 96.4889 30.0414 102.381C29.76 103.759 29.5117 105.12 29.2138 106.681C32.7063 104.324 36.0333 102.099 39.3769 99.8419C43.1508 102.863 46.9082 105.851 50.649 108.838C50.6987 108.805 50.7318 108.772 50.7814 108.739C48.58 102.647 46.3785 96.5719 44.1605 90.447C44.4585 90.3806 44.6736 90.3142 44.8888 90.281C48.2158 89.7166 51.5429 89.1523 54.8699 88.6377C55.4657 88.5547 55.6975 88.2891 55.8465 87.7746C57.8493 80.8861 59.8852 74.0142 61.9046 67.1423C62.2853 65.8808 62.6329 64.6027 63.0136 63.2748M242.06 57.764C241.861 57.764 241.778 57.7308 241.696 57.764C233.105 59.4239 224.514 61.1004 215.907 62.727C215.162 62.8764 214.997 63.2748 214.947 63.9056C214.881 64.8351 214.831 65.7646 214.732 66.6941C214.533 68.7026 214.318 70.7276 214.12 72.7361C213.987 74.0972 213.888 75.4583 213.755 76.836C213.557 78.9274 213.325 81.0355 213.126 83.1269C212.944 85.0026 212.779 86.8948 212.597 88.7705C212.348 91.3101 212.067 93.8331 211.819 96.3727C211.604 98.4974 211.388 100.622 211.19 102.747C211.107 103.709 211.041 104.689 210.958 105.851C212.332 105.851 213.557 105.801 214.782 105.851C219.267 106.05 223.77 106.299 228.255 106.481C229.728 106.548 229.795 106.498 230.026 105.104C230.357 103.095 230.589 101.07 230.871 98.9953C226.766 98.7464 222.727 98.4808 218.688 98.2318C218.671 98.1488 218.638 98.0658 218.622 97.9828C224.101 92.7874 229.579 87.5754 234.909 82.5128C231.135 82.629 227.146 82.7617 223.008 82.8945C229.43 74.4292 235.704 66.1298 242.043 57.7806M93.1719 99.9913C88.9511 100.257 84.8626 100.506 80.7742 100.755C80.7577 100.688 80.7411 100.622 80.708 100.556C86.4517 95.908 92.1953 91.2769 97.939 86.6293C97.9224 86.5795 97.8893 86.5131 97.8562 86.4633C93.3871 86.7621 88.918 87.0608 84.2999 87.3762C85.0447 86.5131 85.6406 85.8325 86.2365 85.1686C88.2228 82.9941 90.2256 80.8363 92.2284 78.6619C94.1816 76.5372 96.1348 74.396 98.1045 72.2713C100.521 69.6653 102.954 67.0759 105.371 64.4699C105.834 63.9719 106.248 63.4408 106.728 62.8764C106.099 62.9926 105.52 63.0922 104.957 63.1752C102.491 63.5238 100.041 63.8226 97.5748 64.1877C94.314 64.6691 91.0698 65.1837 87.8255 65.6484C85.0116 66.0468 82.1977 66.3954 79.3838 66.7605C78.9204 66.8269 78.5231 66.9597 78.4072 67.5407C77.3644 73.1511 76.3217 78.7448 75.2623 84.3552C74.0209 90.9615 72.7795 97.5678 71.5546 104.158C71.3229 105.353 71.1242 106.548 70.8925 107.809C74.1202 107.693 77.1824 107.56 80.2611 107.444C83.555 107.311 86.8489 107.195 90.1428 107.046C90.4573 107.046 90.9539 106.813 91.0367 106.581C91.765 104.456 92.427 102.298 93.1553 99.9581M210.114 56.2867C209.982 56.2535 209.915 56.2203 209.866 56.2369C204.933 57.4154 200 58.5939 195.068 59.8057C194.836 59.8721 194.538 60.2206 194.522 60.4696C194.306 62.5777 194.158 64.6691 193.975 66.7771C193.86 68.1714 193.744 69.5657 193.611 70.96C193.413 73.1677 193.197 75.3753 192.982 77.5829C192.85 79.027 192.751 80.4711 192.618 81.9152C192.42 84.1228 192.204 86.3305 192.006 88.5381C191.873 89.9822 191.757 91.4263 191.642 92.8704C191.443 95.2108 191.211 97.5678 191.046 99.9083C191.046 100.141 191.244 100.522 191.459 100.639C192.32 101.103 193.231 101.485 194.108 101.917C199.189 104.456 204.271 107.013 209.353 109.552C209.601 109.685 209.866 109.785 210.296 109.984C210.114 109.453 210.048 109.071 209.882 108.755C208.988 107.062 208.061 105.386 207.135 103.709C205.032 99.9083 202.897 96.1403 200.812 92.3226C200.629 91.9907 200.629 91.4761 200.729 91.0943C201.904 86.6957 203.112 82.297 204.304 77.8983C206.241 70.711 208.177 63.5238 210.13 56.2867M134.602 9.01345C133.493 9.17944 132.533 9.27903 131.59 9.47821C127.617 10.275 123.645 11.1049 119.656 11.885C119.209 11.968 119.043 12.1008 118.993 12.5158C118.613 15.404 118.216 18.2922 117.818 21.1969C116.974 27.4713 116.113 33.729 115.253 40.0033C114.624 44.5846 114.028 49.1659 113.366 53.7471C113.25 54.5937 113.515 54.8592 114.293 55.075C118.563 56.2203 122.801 57.432 127.054 58.6106C129.157 59.1915 131.275 59.7725 133.444 60.3866C132.202 58.2952 130.994 56.3033 129.819 54.2783C127.816 50.8257 125.796 47.3898 123.827 43.9206C123.413 43.1903 122.9 42.5097 123.281 41.464C124.853 37.082 126.26 32.6667 127.783 28.268C129.554 23.139 131.358 18.0266 133.162 12.9142C133.593 11.6858 134.073 10.4575 134.602 9.03005M57.75 108.241C58.0976 108.241 58.4783 108.274 58.859 108.241C61.2756 107.992 63.6757 107.693 66.0923 107.461C66.6054 107.411 66.8206 107.245 66.9034 106.764C67.0855 105.734 67.2841 104.722 67.4827 103.709C68.5586 98.265 69.618 92.8206 70.6939 87.3762C71.7698 81.9152 72.8622 76.4376 73.9381 70.9766C74.2361 69.4329 74.534 67.8893 74.8485 66.2294C73.0774 66.08 71.4222 65.8974 69.7669 65.8144C69.5021 65.8144 69.1379 66.0966 68.9724 66.3456C66.8868 69.35 64.8343 72.3543 62.7984 75.3753C62.5832 75.6907 62.4012 76.0558 62.3515 76.421C61.3418 83.4091 60.3487 90.4138 59.339 97.4185C58.8259 101.004 58.3127 104.589 57.7665 108.257M96.4327 11.8684C98.6342 11.4203 100.72 11.0053 102.772 10.5737C105.321 10.0426 107.87 9.47821 110.403 8.91386C110.601 8.86406 110.85 8.68147 110.899 8.51549C111.413 6.52363 111.893 4.51518 112.373 2.53993C112.29 2.45694 112.257 2.39054 112.224 2.39054C109.012 1.6104 105.818 0.830259 102.607 0.0501171C102.143 -0.0660742 101.895 0.0501171 101.663 0.514882C100.124 3.81804 98.5514 7.10459 97.012 10.3911C96.8134 10.8227 96.6479 11.2875 96.4161 11.885" fill="#097832"/>
<path d="M83.3068 3.12057C80.0129 21.9768 76.719 40.7666 73.392 59.7887C69.9657 55.1909 66.6386 50.7424 63.2454 46.1778C60.5639 49.0493 57.9156 51.8711 55.1513 54.8091C54.2741 50.5764 53.4465 46.5263 52.5857 42.277C48.9111 46.128 45.3689 49.8627 41.6943 53.7302C41.5784 52.4355 41.4626 51.3068 41.3798 50.1781C40.8833 44.0531 40.4198 37.9448 39.8736 31.8198C39.7742 30.6579 40.5853 30.1102 41.1315 29.3964C42.5881 27.4544 44.1275 25.5621 45.6338 23.6532C47.2062 21.6614 48.7787 19.6529 50.3512 17.6611C51.8078 15.8186 53.2478 13.9596 54.7044 12.1005C56.3431 10.0091 57.9818 7.93421 59.637 5.85936C59.7529 5.70997 59.9846 5.64358 60.2329 5.49419C60.3322 6.57311 60.4481 7.50264 60.4812 8.44877C60.5639 11.0216 60.5639 13.611 60.6633 16.1838C60.7626 18.8396 60.9115 21.4788 61.044 24.2508C61.3253 24.0516 61.5902 23.8856 61.8054 23.6698C64.0896 21.4456 66.3573 19.2214 68.6415 16.9971C71.3229 14.4077 74.0044 11.8349 76.7024 9.24551C78.7549 7.28686 80.824 5.3282 82.893 3.36955C83.042 3.23676 83.224 3.15376 83.3234 3.07077" fill="#097832"/>
<path d="M124.373 104.788C123.099 103.858 121.874 102.946 120.649 102.033C119.077 100.887 117.488 99.7752 115.948 98.5966C115.485 98.2315 115.121 98.2481 114.641 98.4805C108.334 101.385 102.028 104.273 95.7048 107.162C95.4069 107.294 95.1089 107.427 94.6289 107.643C94.7944 107.178 94.8937 106.863 95.0096 106.547C99.876 93.368 104.759 80.1886 109.625 67.0092C109.874 66.3286 110.072 65.6315 110.354 64.9675C110.469 64.702 110.718 64.37 110.966 64.3202C114.492 63.5733 118.017 62.8595 121.543 62.1624C121.758 62.1126 121.973 62.1624 122.222 62.1624C122.983 67.4242 123.728 72.6694 124.506 78.064C125.234 77.317 125.913 76.6365 126.575 75.9559C130.167 72.354 133.742 68.7355 137.384 65.1667C137.764 64.785 138.493 64.7186 139.072 64.5692C140.164 64.3036 141.257 64.1044 142.449 63.8554C136.407 77.5494 130.398 91.1438 124.357 104.805" fill="#097832"/>
<path d="M252.653 55.6058C254.324 61.0502 255.996 66.4614 257.701 72.0054C258.098 71.5572 258.446 71.2253 258.76 70.8435C261.276 67.7063 263.759 64.5526 266.292 61.4486C266.656 61.0004 267.235 60.6187 267.798 60.4361C270.148 59.6725 272.515 59.0086 274.998 58.2782C269.536 73.4163 264.123 88.4216 258.678 103.543C257.618 102.713 256.609 101.95 255.615 101.153C253.679 99.6258 251.742 98.0821 249.822 96.5384C249.392 96.1898 249.077 96.223 248.614 96.5384C243.516 99.9411 238.401 103.311 233.286 106.68C233.154 106.763 233.005 106.846 232.707 107.029C233.088 105.668 233.435 104.456 233.766 103.244C237.656 89.1519 241.546 75.0762 245.436 60.9838C245.767 59.7721 246.081 58.5438 246.445 57.3321C246.512 57.1163 246.727 56.8009 246.909 56.7677C248.779 56.3694 250.666 56.0208 252.636 55.6556" fill="#097832"/>
<path d="M196.889 54.029C194.919 52.6347 193.115 51.3732 191.327 50.0785C189.507 48.7672 187.702 47.4558 185.898 46.1445C185.534 45.879 185.087 45.6632 184.806 45.3312C184.326 44.7834 183.912 44.8664 183.333 45.1652C177.97 47.9372 172.574 50.676 167.194 53.4314C166.913 53.5642 166.615 53.6638 166.317 53.78C166.251 53.7302 166.168 53.6804 166.102 53.6472C166.35 52.867 166.582 52.1035 166.83 51.3234C168.137 47.4558 169.478 43.5883 170.769 39.7042C173.914 30.2097 177.059 20.7152 180.188 11.2041C180.32 10.8058 180.519 10.59 180.982 10.4738C182.803 10.009 184.59 9.44468 186.395 8.94671C186.626 8.88032 186.875 8.94671 187.206 8.94671C188.828 14.2251 190.467 19.5367 192.056 24.6989C193.148 23.6698 194.323 22.5909 195.498 21.4954C195.614 21.3792 195.681 21.2298 195.796 21.1136C197.253 19.5865 198.726 18.076 200.183 16.5489C201.209 15.4534 202.285 14.4907 203.808 14.0591C205.579 13.5612 207.3 12.8308 209.27 12.1171C209.088 12.9138 208.989 13.5446 208.807 14.1587C207.83 17.3955 206.853 20.6322 205.86 23.8856C204.337 28.9316 202.781 33.9611 201.292 39.0071C200.199 42.7252 199.206 46.4599 198.13 50.178C197.766 51.4396 197.336 52.6679 196.889 54.0456" fill="#097832"/>
<path d="M202.385 52.5517C203.527 48.7506 204.636 45.0822 205.712 41.3973C208.36 32.3178 210.975 23.2549 213.64 14.1753C214.087 12.6815 214.6 11.2042 215.147 9.74347C215.246 9.46129 215.66 9.16251 215.958 9.11272C218.06 8.79734 220.179 8.54836 222.297 8.24958C224.449 7.9508 226.617 7.58563 228.769 7.28685C230.044 7.10427 231.335 6.95488 232.626 6.77229C233.172 6.6893 233.238 7.10427 233.371 7.45284C235.423 12.8806 237.409 18.325 239.545 23.7196C240.091 25.1139 239.992 26.1431 239.214 27.4046C236.003 32.683 232.907 38.0444 229.746 43.356C229.531 43.7211 229.15 44.1029 228.753 44.2191C220.112 46.9911 211.472 49.7465 202.815 52.4853C202.716 52.5185 202.616 52.5185 202.385 52.5351" fill="#097832"/>
<path d="M156.916 104.091C155.559 102.946 154.35 101.916 153.126 100.887C151.719 99.6922 150.312 98.497 148.888 97.3351C148.739 97.2189 148.375 97.2687 148.176 97.3517C146.256 98.1817 144.336 99.0448 142.416 99.8913C138.692 101.568 134.968 103.244 131.243 104.921C130.647 105.186 130.068 105.452 129.34 105.767C129.687 104.821 129.969 103.975 130.3 103.128C133.478 95.0943 136.639 87.0771 139.834 79.0599C142.118 73.3167 144.419 67.5736 146.72 61.8304C146.803 61.6312 146.968 61.3822 147.15 61.3324C148.838 60.8677 150.543 60.4527 152.265 60.0045C153.837 64.9841 155.41 69.9306 156.949 74.8272C157.644 74.1633 158.373 73.4993 159.068 72.8022C161.021 70.8103 162.974 68.8019 164.911 66.7768C166.069 65.5817 167.212 64.3534 168.37 63.1583C168.569 62.9591 168.85 62.7101 169.098 62.6935C170.853 62.6603 172.608 62.6769 174.428 62.6769C168.618 76.4041 162.809 90.1645 156.933 104.074" fill="#097832"/>
<path d="M41.4468 5.26178C39.6757 8.89691 37.9874 12.3495 36.299 15.802C34.6273 19.2379 32.9555 22.6739 31.2671 26.1098C31.0189 26.5912 31.0189 27.0062 31.1844 27.5041C33.2369 33.5627 35.2728 39.6378 37.3087 45.713C37.4577 46.1445 37.557 46.4599 37.077 46.8251C29.1484 52.8338 21.2364 58.8758 13.3079 64.9011C13.2251 64.9675 13.1258 65.0173 12.9106 65.1667C13.01 64.7683 13.0762 64.4862 13.1589 64.2206C14.599 59.8385 16.0225 55.4398 17.4956 51.0578C17.6943 50.4602 17.6446 49.9788 17.3963 49.4311C13.672 41.2479 9.98088 33.0647 6.24006 24.8815C5.87591 24.0848 6.05799 23.8026 6.80284 23.4374C10.7754 21.4124 14.6983 19.3209 18.6377 17.2627C21.9151 15.5364 25.1759 13.8267 28.4533 12.1005C32.5748 9.92603 36.7129 7.75159 40.8344 5.57716C40.9668 5.51076 41.1158 5.44437 41.4468 5.27838" fill="#097832"/>
<path d="M148.573 43.7543C143.127 47.1571 138.013 51.008 132.633 54.4605C132.567 54.3941 132.484 54.3111 132.418 54.2282C132.898 52.8505 133.395 51.4894 133.891 50.1117C138.393 37.6626 142.912 25.2135 147.414 12.7478C147.696 11.9677 148.06 11.6523 148.921 11.4697C151.999 10.7892 155.062 9.94266 158.124 9.16251C160.342 8.59816 162.56 8.0172 164.778 7.45284C164.943 7.41964 165.109 7.41964 165.341 7.40305C165.341 7.65203 165.374 7.88441 165.374 8.13339C165.043 22.0598 164.712 35.9861 164.38 49.9125C164.38 50.6096 164.099 50.8254 163.42 50.9084C160.458 51.2404 157.511 51.6553 154.565 52.0039C154.383 52.0205 154.085 51.8213 153.969 51.6388C152.314 49.1987 150.675 46.7255 149.036 44.2689C148.921 44.0863 148.772 43.9369 148.606 43.7543" fill="#097832"/>
<path d="M97.1443 61.1498C96.2835 57.0665 95.4559 53.116 94.6118 49.0825C88.8019 53.199 83.0748 57.2491 77.3477 61.2992C77.2484 61.2162 77.1491 61.1498 77.0332 61.0668C77.2484 60.4361 77.447 59.7887 77.6953 59.158C79.7478 53.8132 81.8003 48.4684 83.8859 43.1402C85.6404 38.6253 87.428 34.1436 89.1991 29.6288C90.6723 25.8775 92.1455 22.1261 93.569 18.3416C93.7841 17.7607 94.1648 17.7275 94.5952 17.5947C97.227 16.7315 99.8423 15.8518 102.474 14.9721C105.04 14.1255 107.622 13.2624 110.204 12.4159C110.303 12.3827 110.419 12.4159 110.568 12.3827C110.519 13.1628 110.502 13.9097 110.436 14.6733C110.27 16.6485 110.022 18.6238 109.939 20.599C109.691 25.7613 109.509 30.9401 109.294 36.1023C109.095 41.0487 108.88 45.9952 108.681 50.9582C108.615 52.4355 108.615 53.9294 108.532 55.4067C108.532 55.6888 108.301 56.1038 108.069 56.2034C104.841 57.7471 101.597 59.241 98.3526 60.7349C98.005 60.8842 97.6243 60.9672 97.1774 61.1" fill="#097832"/>
<path d="M240.306 54.0953C242.689 49.5805 245.007 45.215 247.307 40.8329C247.887 39.754 248.814 38.6585 248.863 37.5464C248.913 36.4509 248.069 35.3221 247.605 34.1934C245.271 28.5332 242.921 22.8565 240.587 17.1797C240.389 16.6817 240.223 16.1672 240.008 15.5862C250.287 11.8515 260.566 8.10017 270.861 4.34885C270.911 4.41524 270.944 4.46504 270.994 4.53143C270.779 5.0294 270.58 5.54396 270.348 6.04192C269.057 8.83051 267.749 11.6025 266.442 14.3911C265.366 16.7149 264.224 19.0056 263.28 21.3958C263.016 22.0763 263.247 23.0391 263.446 23.8192C264.72 29.1806 266.061 34.5254 267.369 39.8702C267.567 40.7167 267.783 41.5467 267.998 42.3932C268.114 42.8746 267.965 43.107 267.485 43.2895C262.469 45.2648 257.454 47.2732 252.439 49.2651C248.698 50.7424 244.957 52.2197 241.216 53.697C240.968 53.7966 240.736 53.8962 240.306 54.0787" fill="#097832"/>
<path d="M47.7028 60.2037C45.9648 62.4777 44.3096 64.6688 42.6544 66.8598C40.0722 70.2459 37.49 73.6487 34.8913 77.0182C34.6099 77.3668 34.163 77.6822 33.7327 77.8316C31.6305 78.5453 29.4953 79.2425 27.36 79.8732C26.6814 80.0724 26.3338 80.421 26.1848 81.1015C25.4896 84.3051 24.7613 87.5087 24.0165 90.7122C22.9902 95.1939 21.9309 99.6756 20.9046 104.157C20.7226 104.921 20.5901 105.684 20.3915 106.448C20.2756 106.879 20.1432 107.195 19.5308 107.328C17.4618 107.759 15.4258 108.357 13.3733 108.888C13.2244 108.921 13.0588 108.888 12.7609 108.888C13.4892 100.588 14.2175 92.3223 14.9624 83.9067C9.96356 85.467 5.06408 86.9941 0.181148 88.5212C0.114939 88.4714 0.0652819 88.4216 0.015625 88.3718C0.892897 86.3965 1.75362 84.4047 2.64744 82.4294C4.65027 78.0474 6.66965 73.6653 8.65593 69.2666C8.88766 68.7521 9.13594 68.5031 9.74838 68.3703C16.5514 66.9428 23.3378 65.4489 30.1243 63.955C35.8679 62.6935 41.595 61.432 47.3221 60.1705C47.4049 60.1539 47.4876 60.1871 47.7028 60.2203" fill="#097832"/>
<path d="M188.381 105.651C185.583 106.564 182.985 107.427 180.171 108.357C179.856 107.411 179.542 106.531 179.26 105.618C178.549 103.277 177.853 100.937 177.125 98.4472C175.188 99.7253 173.302 100.987 171.398 102.232C169.461 103.493 167.459 104.672 165.555 105.983C163.685 107.261 161.897 108.672 160.076 110.017C159.977 109.95 159.861 109.884 159.762 109.817C160.06 108.954 160.341 108.075 160.672 107.228C161.996 103.726 163.337 100.257 164.661 96.7542C166.465 91.9571 168.237 87.1269 170.041 82.3298C171.53 78.3461 173.103 74.3956 174.46 70.3787C174.94 68.9512 175.801 68.0549 177.042 67.4905C180.998 65.6647 185.004 63.9218 188.977 62.1457C189.026 62.1291 189.076 62.1457 189.192 62.1457C188.927 76.6697 188.645 91.1936 188.381 105.684" fill="#097832"/>
<path d="M63.0136 63.2413C62.6329 64.5692 62.2853 65.8473 61.9046 67.1088C59.8852 73.9807 57.8659 80.8692 55.8465 87.741C55.6975 88.2722 55.4658 88.5212 54.8699 88.6042C51.5429 89.1187 48.1993 89.6997 44.8723 90.2475C44.6571 90.2807 44.4419 90.3471 44.144 90.4134C46.362 96.5384 48.5635 102.614 50.7649 108.705C50.7153 108.738 50.6822 108.772 50.6325 108.805C46.8917 105.817 43.1509 102.829 39.3604 99.8083C36.0003 102.066 32.6898 104.29 29.1973 106.647C29.4952 105.103 29.76 103.726 30.0249 102.348C31.2166 96.4554 32.3919 90.5628 33.5836 84.6703C33.7657 83.7573 33.8981 82.8444 34.1133 81.9315C34.1961 81.5663 34.3616 81.1845 34.5933 80.9024C38.2679 76.4539 41.9756 72.0386 45.6668 67.6067C47.4214 65.4987 49.2587 63.4405 50.9304 61.2494C51.725 60.2037 52.5691 60.7349 53.3471 60.9008C56.5251 61.598 59.6701 62.3947 62.9971 63.2081" fill="#097832"/>
<path d="M242.06 57.7305C235.72 66.0797 229.447 74.3791 223.025 82.8444C227.163 82.7116 231.152 82.5954 234.926 82.4627C229.596 87.5253 224.117 92.7207 218.638 97.9327C218.655 98.0157 218.688 98.0987 218.705 98.1817C222.743 98.4307 226.766 98.6797 230.887 98.9452C230.606 101.02 230.357 103.045 230.043 105.054C229.811 106.448 229.761 106.481 228.272 106.431C223.786 106.232 219.284 106 214.798 105.801C213.573 105.751 212.332 105.801 210.975 105.801C211.057 104.639 211.107 103.659 211.206 102.697C211.405 100.572 211.62 98.4473 211.835 96.3226C212.1 93.7996 212.365 91.26 212.613 88.7204C212.795 86.8447 212.961 84.9525 213.143 83.0768C213.342 80.9854 213.573 78.8939 213.772 76.7859C213.904 75.4248 214.004 74.0637 214.136 72.7026C214.335 70.6941 214.55 68.6691 214.749 66.6606C214.831 65.7311 214.897 64.8016 214.964 63.872C214.997 63.2413 215.179 62.8429 215.924 62.6935C224.514 61.0669 233.105 59.3904 241.696 57.7305C241.778 57.7305 241.861 57.7305 242.06 57.7471" fill="#097832"/>
<path d="M93.1886 99.9245C92.4603 102.265 91.7982 104.406 91.0699 106.547C90.9872 106.78 90.4906 106.996 90.1761 107.012C86.8822 107.178 83.5883 107.294 80.2944 107.411C77.2157 107.527 74.1535 107.643 70.9258 107.776C71.1575 106.514 71.3727 105.319 71.5879 104.124C72.8293 97.5177 74.0707 90.928 75.2956 84.3217C76.3384 78.7113 77.3977 73.1175 78.4405 67.5071C78.5564 66.9096 78.9537 66.7768 79.4171 66.727C82.231 66.3452 85.0449 66.0133 87.8588 65.6149C91.1196 65.1501 94.3639 64.619 97.6081 64.1542C100.058 63.789 102.524 63.4902 104.99 63.1417C105.57 63.0587 106.133 62.9425 106.762 62.8429C106.282 63.4073 105.868 63.9384 105.404 64.4364C102.988 67.0424 100.554 69.6318 98.1378 72.2378C96.1681 74.3624 94.2149 76.5037 92.2617 78.6283C90.2589 80.8028 88.256 82.9606 86.2698 85.135C85.6573 85.799 85.078 86.4795 84.3332 87.3427C88.9512 87.0273 93.4204 86.7285 97.8895 86.4297C97.9226 86.4795 97.9391 86.5459 97.9723 86.5957C92.2286 91.2434 86.4849 95.8744 80.7413 100.522C80.7579 100.588 80.7744 100.655 80.8075 100.705C84.8959 100.456 88.9678 100.207 93.2052 99.9411" fill="#097832"/>
<path d="M210.147 56.2532C208.194 63.4903 206.257 70.6775 204.321 77.8648C203.129 82.2635 201.921 86.6455 200.746 91.0608C200.646 91.4426 200.646 91.9571 200.828 92.2891C202.914 96.0902 205.049 99.8747 207.151 103.676C208.078 105.352 209.005 107.029 209.899 108.722C210.065 109.037 210.131 109.419 210.313 109.95C209.882 109.751 209.618 109.651 209.369 109.519C204.288 106.979 199.206 104.423 194.141 101.883C193.264 101.435 192.354 101.07 191.493 100.588C191.278 100.472 191.062 100.107 191.079 99.8582C191.245 97.5177 191.476 95.1607 191.675 92.8203C191.807 91.3762 191.907 89.9321 192.039 88.488C192.238 86.2804 192.453 84.0727 192.651 81.8651C192.784 80.421 192.883 78.9769 193.016 77.5328C193.214 75.3252 193.429 73.1175 193.645 70.9099C193.777 69.5156 193.893 68.1213 194.009 66.727C194.191 64.619 194.34 62.5275 194.555 60.4195C194.572 60.1705 194.87 59.8219 195.101 59.7555C200.034 58.5438 204.966 57.3653 209.899 56.1868C209.949 56.1868 209.998 56.2034 210.147 56.2366" fill="#097832"/>
<path d="M134.602 9.01312C134.073 10.4406 133.609 11.6523 133.162 12.8972C131.358 18.0096 129.554 23.1221 127.783 28.2511C126.26 32.6498 124.853 37.065 123.281 41.4305C122.9 42.4928 123.413 43.1734 123.827 43.8871C125.797 47.3563 127.816 50.8088 129.819 54.2448C130.994 56.2698 132.202 58.2617 133.444 60.3531C131.275 59.7555 129.173 59.1746 127.055 58.577C122.801 57.3985 118.547 56.1868 114.293 55.0415C113.515 54.8423 113.25 54.5601 113.366 53.7136C114.028 49.1323 114.624 44.5511 115.253 39.9698C116.114 33.6955 116.958 27.4211 117.818 21.1634C118.216 18.2752 118.596 15.387 118.994 12.4989C119.043 12.0839 119.209 11.9511 119.656 11.8681C123.628 11.088 127.601 10.258 131.59 9.46129C132.533 9.2787 133.477 9.17911 134.602 8.99652" fill="#097832"/>
<path d="M57.7509 108.224C58.2806 104.556 58.8103 100.97 59.3234 97.3849C60.3165 90.3802 61.3097 83.3922 62.3359 76.4041C62.3856 76.0389 62.5842 75.6737 62.7828 75.3584C64.8353 72.3374 66.8878 69.3164 68.9568 66.3286C69.1389 66.0797 69.5031 65.7809 69.7513 65.7975C71.4231 65.8805 73.0784 66.0631 74.8329 66.2124C74.5184 67.8889 74.2205 69.4326 73.9225 70.9763C72.8466 76.4373 71.7707 81.9149 70.6783 87.3759C69.6024 92.8203 68.5265 98.2647 67.4671 103.692C67.2685 104.705 67.0699 105.734 66.8878 106.747C66.805 107.228 66.5899 107.394 66.0767 107.444C63.6601 107.676 61.26 107.958 58.8434 108.224C58.4627 108.257 58.082 108.224 57.7344 108.224" fill="#097832"/>
<path d="M96.4336 11.8681C96.6653 11.2705 96.8143 10.8224 97.0295 10.3742C98.5854 7.08765 100.158 3.8011 101.681 0.497945C101.896 0.0331799 102.161 -0.0830115 102.624 0.0331798C105.835 0.813322 109.03 1.59346 112.241 2.37361C112.291 2.37361 112.324 2.4566 112.39 2.52299C111.91 4.49825 111.43 6.5067 110.917 8.49855C110.867 8.66454 110.602 8.86372 110.42 8.89692C107.888 9.46128 105.339 10.009 102.79 10.5568C100.721 10.9884 98.6516 11.4033 96.4501 11.8515" fill="#097832"/>
</g>
</g>
<defs>
<clipPath id="clip0_72_2649">
<rect width="275" height="110" fill="white"/>
</clipPath>
</defs>
</svg>
