<?xml version="1.0" encoding="UTF-8"?>
<svg xmlns="http://www.w3.org/2000/svg" xmlns:xlink="http://www.w3.org/1999/xlink" version="1.1" viewBox="0 0 3236.02 4603.64">
  <defs>
    <style>
      .cls-1 {
        fill: url(#Namnlös_övertoning_6);
      }

      .cls-2 {
        fill: url(#Namnlös_övertoning_6-10);
      }

      .cls-3 {
        fill: url(#Namnlös_övertoning_6-2);
      }

      .cls-4 {
        fill: url(#Namnlös_övertoning_6-6);
      }

      .cls-5 {
        fill: url(#Namnlös_övertoning_6-3);
      }

      .cls-6 {
        fill: url(#Namnlös_övertoning_6-5);
      }

      .cls-7 {
        fill: url(#Namnlös_övertoning_6-7);
      }

      .cls-8 {
        fill: url(#Namnlös_övertoning_6-8);
      }

      .cls-9 {
        fill: url(#Namnlös_övertoning_6-4);
      }

      .cls-10 {
        fill: url(#Namnlös_övertoning_6-9);
      }
    </style>
    <linearGradient id="Namnlös_övertoning_6" data-name="Namnlös övertoning 6" x1="-507.32" y1="2020.15" x2="587.63" y2="2020.15" gradientTransform="translate(3806.55 568.53) rotate(90)" gradientUnits="userSpaceOnUse">
      <stop offset=".27" stop-color="#eaff32"/>
      <stop offset=".7" stop-color="#c9c5c5"/>
    </linearGradient>
    <linearGradient id="Namnlös_övertoning_6-2" data-name="Namnlös övertoning 6" x1="75.76" y1="3806.84" x2="75.76" y2="570.24" xlink:href="#Namnlös_övertoning_6"/>
    <linearGradient id="Namnlös_övertoning_6-3" data-name="Namnlös övertoning 6" x1="1894.76" y1="3623.32" x2="-415.75" y2="1312.81" xlink:href="#Namnlös_övertoning_6"/>
    <linearGradient id="Namnlös_övertoning_6-4" data-name="Namnlös övertoning 6" x1="837.62" y1="2614.51" x2="1447.9" y2="2614.51" xlink:href="#Namnlös_övertoning_6"/>
    <linearGradient id="Namnlös_övertoning_6-5" data-name="Namnlös övertoning 6" x1="1739.96" y1="2378.99" x2="154.34" y2="793.37" xlink:href="#Namnlös_övertoning_6"/>
    <linearGradient id="Namnlös_övertoning_6-6" data-name="Namnlös övertoning 6" x1="1014.05" y1="2114.89" x2="2006.02" y2="2114.89" xlink:href="#Namnlös_övertoning_6"/>
    <linearGradient id="Namnlös_övertoning_6-7" data-name="Namnlös övertoning 6" x1="2825.61" y1="1398.32" x2="2825.61" y2="3806.84" xlink:href="#Namnlös_övertoning_6"/>
    <linearGradient id="Namnlös_övertoning_6-8" data-name="Namnlös övertoning 6" x1="3948.49" y1="2136.78" x2="2059.43" y2="247.72" xlink:href="#Namnlös_övertoning_6"/>
    <linearGradient id="Namnlös_övertoning_6-9" data-name="Namnlös övertoning 6" x1="3623.72" y1="2935.13" x2="4034.69" y2="2935.13" xlink:href="#Namnlös_övertoning_6"/>
    <linearGradient id="Namnlös_övertoning_6-10" data-name="Namnlös övertoning 6" x1="3891.33" y1="1320.54" x2="4034.69" y2="1320.54" xlink:href="#Namnlös_övertoning_6"/>
  </defs>
  <!-- Generator: Adobe Illustrator 28.6.0, SVG Export Plug-In . SVG Version: 1.2.0 Build 709)  -->
  <g>
    <g id="Lager_1">
      <g>
        <path class="cls-1" d="M336.48,1066.58c130.1-18.07,269.78-2.39,384.32,43.13,60.88,24.2,127.71,57.92,194.56,42.58,46.84-10.75,74.72-42.25,102.36-70.03,175.81-176.71,502.83-278.62,815.34-254.08,91.17,7.16,180.54,24.15,272.2,27.45,184.67,6.64,366.01-43.37,516.8-115.88,150.78-72.5,490.91-332.79,614.25-426.15V61.21c-374.88,8.3-993.44,29.61-1365.09,63.82-116.54,10.73-261.96,42.84-269.18,122.35-2.11,23.21,9.23,47.33-1.98,69.31-31.42,61.63-175.87,35.64-254.61,73.14-35.95,17.12-55.47,46.94-91.99,63.51-66.84,30.33-155.82,4.93-236.26,5.93-103.08,1.29-196.32,49.84-244.47,111.59-48.15,61.75-56.8,134.53-47.1,204.06,4.11,29.49,9.35,63.31-20.71,84.83-19.74,14.14-49.59,18.78-77.02,24.57-127.49,26.91-235.05,94.12-284.9,178.03"/>
        <path class="cls-3" d="M343,1062.34c49.85-83.91,157.41-151.12,284.9-178.03,27.43-5.79,57.28-10.43,77.02-24.57,30.06-21.52,24.82-55.33,20.71-84.83-9.7-69.52-1.04-142.31,47.1-204.06,48.15-61.75,141.39-110.3,244.47-111.59,80.44-1,169.42,24.4,236.26-5.93,36.51-16.57,56.03-46.39,91.99-63.51,78.75-37.5,223.2-11.51,254.61-73.14,11.2-21.98-.13-46.1,1.98-69.31,7.22-79.51,152.64-111.62,269.18-122.35,371.65-34.21,990.21-55.52,1365.09-63.82V.43H-.29v1106.54c149.55-66.42,345.21,4.48,490.54,75,145.32,70.52,335.97,144.67,490.19,83.35,69.52-27.68,112.33-77.48,170.67-115.21,131.85-85.13,327.75-101.45,509.03-113.35,225.92-14.92,454.35-29.77,679.01-7.96,175.35,17.09,436.54,62.94,897.17-133.46V313.61c-123.35,93.36-463.47,353.65-614.25,426.15-150.79,72.51-332.13,122.52-516.8,115.88-91.66-3.3-181.02-20.29-272.2-27.45-312.51-24.54-639.53,77.37-815.34,254.08-27.64,27.78-55.52,59.28-102.36,70.03-66.86,15.34-133.69-18.38-194.56-42.58-114.54-45.53-254.22-61.2-384.32-43.13"/>
        <path class="cls-5" d="M-.29,2197.9c4.79,93.48,54.45,167.55,147.61,181.94,8.56,1.39,17.58,2.17,26.94,2.47,87.22,2.55,244.98-45.08,345.1-282.76,55.25-130.98,95.66-265.68,177.29-390.16,81.62-124.49,215.42-240.86,403.21-289.65,187.79-48.71,579.92,27.76,731.41,322.97,57.19,8.66,115.18,13.07,174.43,10.44,162.45-7.27,309.48-67.66,434.94-137.94,289.85-162.22,593.73-454.42,795.68-669.22v-50.65c-460.63,196.4-721.82,150.54-897.17,133.46-224.66-21.8-453.09-6.96-679.01,7.96-181.28,11.91-377.18,28.22-509.03,113.35-58.33,37.73-101.14,87.53-170.67,115.21-154.23,61.32-344.87-12.84-490.19-83.35-145.32-70.52-340.99-141.42-490.54-75v1058.91"/>
        <path class="cls-9" d="M554.97,2013.18c45.55-107.86,178.43-199.8,333.34-243.95,144.52-186.65,355.15-158.51,544.88-118.15,133.11,28.3,263.59,71.44,398.07,91.63-151.49-295.21-543.62-371.68-731.41-322.97-187.79,48.79-321.58,165.16-403.21,289.65-64.43,98.27-103.19,202.9-143.83,307.04l2.16-3.25Z"/>
        <path class="cls-6" d="M1831.26,1742.71c57.19,8.66,115.18,13.07,174.43,10.44,162.45-7.27,309.48-67.66,434.94-137.94,289.85-162.22,593.73-454.42,795.68-669.22v636.59c-162.45,174.51-555.49,372.15-853.56,414.52-298.07,42.45-620.45-.39-872.85-115.83-86.87-39.67-166.33-87.76-261.88-116.83-113.82-34.64-243.04-28.53-359.71,4.79,144.52-186.65,355.15-158.51,544.88-118.15,133.11,28.3,263.59,71.44,398.07,91.63Z"/>
        <path class="cls-4" d="M552.81,2016.43c-10.84,27.78-21.82,55.53-33.46,83.12-100.12,237.69-257.88,285.32-345.1,282.76-9.36-.31-18.38-1.08-26.94-2.47-7.31,54.74,117.81,130.05,327.86,164.77,413.14,68.35,998.08,35.65,1911-267.53,11.99-149.77,286.76-269.77,482.43-199.57,324.21,116.37,367.7,245.34,367.7,245.34v-740.27c-162.45,174.51-555.49,372.15-853.56,414.52-298.07,42.45-620.45-.39-872.85-115.83-86.87-39.67-166.33-87.76-261.88-116.83-113.82-34.64-243.04-28.53-359.71,4.79-154.91,44.15-287.79,136.09-333.34,243.95l-2.16,3.25Z"/>
        <path class="cls-7" d="M1791.19,4480.27c3.2-9.82,5.94-20.34.8-29.77-6.85-12.22-24.89-19.49-40.64-27.06-97.83-47.55-128.09-148.38-65.41-217.97,12.56-13.84,28.54-27.29,31.39-43.38,6.51-35.8-50-59.69-94.64-79.33-59.82-26.29-114.84-66.26-116.56-114.51-2.74-77.01,125-124.41,237.11-137.48,112.1-13.14,238.36-13.61,320.1-67.19,73.4-48.17,121.12-110.96,75-244.64-60.16,79.8,0,0,0,0,7.88-10.36,14.73-21.19,20.55-32.4,34.36-66.5,27.17-139.02,19.52-209.23-15.07-139.26-30.25-278.51-45.32-417.77-8.45-78.33-10.73-168.17,73.97-221.76,45.32-28.76,109.59-41.99,151.26-73.22,98.06-73.38,19.98-188.66,27.85-287.48-912.92,303.18-1497.87,335.88-1911,267.53-210.05-34.72-335.17-110.03-327.86-164.77-93.15-14.38-142.81-88.46-147.61-181.94v1994.35c361.08,337.28,784.15,265.6,1091.12,190.36,128.09-31.39,282.08-13.84,377.06,52.35,70.55,49.18,113.36,121.7,207.77,146.68,22.6,6.03,45.09,8.66,67.47,8.74,20.09-35.8,36.19-72.6,48.06-110.11Z"/>
        <path class="cls-8" d="M2138.34,3518.94c46.12,133.69-1.6,196.47-75,244.64-81.74,53.58-208,54.05-320.1,67.19-112.1,13.07-239.85,60.47-237.11,137.48,1.71,48.25,56.74,88.22,116.56,114.51,44.64,19.64,101.14,43.53,94.64,79.33-2.85,16.08-18.84,29.54-31.39,43.38-62.67,69.59-32.42,170.42,65.41,217.97,15.75,7.58,33.79,14.85,40.64,27.06,5.14,9.43,2.4,19.95-.8,29.77-11.87,37.5-27.97,74.31-48.06,110.11,113.47.46,225.12-64.72,337.11-98.74,144.64-44,311.88-35.49,467.7-15.23,155.71,20.18,277.63,65.8,688.37,48.94v-2202.5s-43.49-128.97-367.7-245.34c-195.67-70.21-470.44,49.79-482.43,199.57-7.88,98.82,70.21,214.1-27.85,287.48-41.67,31.24-105.94,44.46-151.26,73.22-84.7,53.58-82.42,143.43-73.97,221.76,15.07,139.26,30.25,278.51,45.32,417.77,7.65,70.21,14.84,142.74-19.52,209.23-5.82,11.21-12.67,22.04-20.55,32.4Z"/>
        <path class="cls-10" d="M1735.71,4603.21c2.51-4.25,5.02-8.51,7.42-12.84-22.37-.08-44.86-2.71-67.47-8.74-94.41-24.97-137.22-97.5-207.77-146.68-94.98-66.19-248.98-83.74-377.06-52.35-306.97,75.23-730.04,146.91-1091.12-190.36v410.96h1736Z"/>
        <path class="cls-2" d="M1735.71,4603.21c2.51-4.25,5.02-8.51,7.42-12.84,113.47.46,225.12-64.72,337.11-98.74,144.64-44,311.88-35.49,467.7-15.23,155.71,20.18,277.63,65.8,688.37,48.94v77.83l-1500.6.03Z"/>
      </g>
    </g>
  </g>
</svg>