<?xml version="1.0" encoding="UTF-8"?>
<svg id="Lager_1" xmlns="http://www.w3.org/2000/svg" xmlns:xlink="http://www.w3.org/1999/xlink" viewBox="0 0 4677.2 6651.4">
  <defs>
    <style>
      .cls-1 {
        fill: url(#Namnlös_övertoning_3);
      }

      .cls-2 {
        fill: url(#Namnlös_övertoning_4);
      }

      .cls-3 {
        fill: url(#Namnlös_övertoning_5);
      }

      .cls-4 {
        fill: url(#Namnlös_övertoning_6);
      }

      .cls-5 {
        fill: url(#Namnlös_övertoning_7);
      }

      .cls-6 {
        fill: url(#Namnlös_övertoning_8);
      }

      .cls-7 {
        fill: url(#Namnlös_övertoning_9);
      }

      .cls-8 {
        fill: url(#Namnlös_övertoning_2);
      }

      .cls-9 {
        fill: url(#Namnlös_övertoning_14);
      }

      .cls-10 {
        fill: url(#Namnlös_övertoning_10);
      }

      .cls-11 {
        fill: url(#Namnlös_övertoning);
      }
    </style>
    <linearGradient id="Namnlös_övertoning_14" data-name="Namnlös övertoning 14" x1="0" y1="3327.98" x2="4670.27" y2="3327.98" gradientUnits="userSpaceOnUse">
      <stop offset=".35" stop-color="#c9c5c5"/>
      <stop offset=".97" stop-color="#c9c5c5"/>
    </linearGradient>
    <linearGradient id="Namnlös_övertoning" data-name="Namnlös övertoning" x1="-2696.2" y1="-5834.9" x2="-1113.91" y2="-5834.9" gradientTransform="translate(8416.8 2784) rotate(90) scale(1 -1)" gradientUnits="userSpaceOnUse">
      <stop offset=".1" stop-color="#c9c5c5"/>
      <stop offset="1" stop-color="#eaff32"/>
    </linearGradient>
    <linearGradient id="Namnlös_övertoning_2" data-name="Namnlös övertoning 2" x1="-1853.6" y1="-8416.8" x2="-1853.6" y2="-3739.6" gradientTransform="translate(8416.8 2784) rotate(90) scale(1 -1)" gradientUnits="userSpaceOnUse">
      <stop offset=".1" stop-color="#c9c5c5"/>
      <stop offset="1" stop-color="#eaff32"/>
    </linearGradient>
    <linearGradient id="Namnlös_övertoning_3" data-name="Namnlös övertoning 3" x1="775.01" y1="-8151.58" x2="-2563.86" y2="-4812.79" gradientTransform="translate(8416.8 2784) rotate(90) scale(1 -1)" gradientUnits="userSpaceOnUse">
      <stop offset=".1" stop-color="#c9c5c5"/>
      <stop offset="1" stop-color="#eaff32"/>
    </linearGradient>
    <linearGradient id="Namnlös_övertoning_4" data-name="Namnlös övertoning 4" x1="-752.55" y1="-6693.8" x2="129.4" y2="-6693.8" gradientTransform="translate(8416.8 2784) rotate(90) scale(1 -1)" gradientUnits="userSpaceOnUse">
      <stop offset=".1" stop-color="#c9c5c5"/>
      <stop offset="1" stop-color="#eaff32"/>
    </linearGradient>
    <linearGradient id="Namnlös_övertoning_5" data-name="Namnlös övertoning 5" x1="551.26" y1="-6353.44" x2="-1740.04" y2="-4062.14" gradientTransform="translate(8416.8 2784) rotate(90) scale(1 -1)" gradientUnits="userSpaceOnUse">
      <stop offset=".1" stop-color="#c9c5c5"/>
      <stop offset="1" stop-color="#eaff32"/>
    </linearGradient>
    <linearGradient id="Namnlös_övertoning_6" data-name="Namnlös övertoning 6" x1="-497.7" y1="-5971.82" x2="935.77" y2="-5971.82" gradientTransform="translate(8416.8 2784) rotate(90) scale(1 -1)" gradientUnits="userSpaceOnUse">
      <stop offset=".1" stop-color="#c9c5c5"/>
      <stop offset="1" stop-color="#eaff32"/>
    </linearGradient>
    <linearGradient id="Namnlös_övertoning_7" data-name="Namnlös övertoning 7" x1="2120.15" y1="-4936.18" x2="2120.15" y2="-8416.8" gradientTransform="translate(8416.8 2784) rotate(90) scale(1 -1)" gradientUnits="userSpaceOnUse">
      <stop offset=".1" stop-color="#c9c5c5"/>
      <stop offset="1" stop-color="#eaff32"/>
    </linearGradient>
    <linearGradient id="Namnlös_övertoning_8" data-name="Namnlös övertoning 8" x1="3742.8" y1="-6003.6" x2="1012.91" y2="-3273.72" gradientTransform="translate(8416.8 2784) rotate(90) scale(1 -1)" gradientUnits="userSpaceOnUse">
      <stop offset=".1" stop-color="#c9c5c5"/>
      <stop offset="1" stop-color="#eaff32"/>
    </linearGradient>
    <linearGradient id="Namnlös_övertoning_9" data-name="Namnlös övertoning 9" x1="3273.5" y1="-7157.1" x2="3867.4" y2="-7157.1" gradientTransform="translate(8416.8 2784) rotate(90) scale(1 -1)" gradientUnits="userSpaceOnUse">
      <stop offset=".1" stop-color="#c9c5c5"/>
      <stop offset="1" stop-color="#eaff32"/>
    </linearGradient>
    <linearGradient id="Namnlös_övertoning_10" data-name="Namnlös övertoning 10" x1="3660.17" y1="-4823.95" x2="3867.4" y2="-4823.95" gradientTransform="translate(8416.8 2784) rotate(90) scale(1 -1)" gradientUnits="userSpaceOnUse">
      <stop offset=".1" stop-color="#c9c5c5"/>
      <stop offset="1" stop-color="#eaff32"/>
    </linearGradient>
  </defs>
  <rect class="cls-9" x="0" y="4.55" width="4670.27" height="6646.85"/>
  <g id="Lager_1-2">
    <g id="Lager_1-2-2" data-name="Lager_1-2">
      <g id="Lager_1-2-2">
        <g id="Lager_1-2-2-2" data-name="Lager_1-2-2">
          <g>
            <path class="cls-11" d="M486.7,1540.7c188-26.1,389.9-3.5,555.4,62.3,88,35,184.6,83.7,281.2,61.5,67.7-15.5,108-61.1,147.9-101.2,254.1-255.4,726.6-402.6,1178.2-367.2,131.7,10.3,260.9,34.9,393.3,39.7,266.9,9.6,528.9-62.7,746.8-167.5,217.9-104.8,709.4-480.9,887.6-615.8V87.8c-541.7,12-1435.6,42.8-1972.7,92.2-168.4,15.5-378.6,61.9-389,176.8-3,33.5,13.3,68.4-2.9,100.2-45.4,89.1-254.1,51.5-367.9,105.7-52,24.7-80.2,67.8-132.9,91.8-96.6,43.8-225.2,7.1-341.4,8.6-149,1.9-283.7,72-353.3,161.3-69.6,89.2-82.1,194.4-68.1,294.9,5.9,42.6,13.5,91.5-29.9,122.6-28.5,20.4-71.7,27.1-111.3,35.5-184.2,38.9-339.7,136-411.7,257.3"/>
            <path class="cls-8" d="M496.1,1534.5c72-121.3,227.5-218.4,411.7-257.3,39.6-8.4,82.8-15.1,111.3-35.5,43.4-31.1,35.9-80,29.9-122.6-14-100.5-1.5-205.6,68.1-294.9,69.6-89.2,204.3-159.4,353.3-161.3,116.2-1.4,244.8,35.3,341.4-8.6,52.8-23.9,81-67,132.9-91.8,113.8-54.2,322.5-16.6,367.9-105.7,16.2-31.8-.2-66.6,2.9-100.2,10.4-114.9,220.6-161.3,389-176.8,537.1-49.4,1430.9-80.2,1972.7-92.2V0H0v1599c216.1-96,498.9,6.5,708.9,108.4,210,101.9,485.5,209.1,708.4,120.4,100.5-40,162.3-112,246.6-166.5,190.5-123,473.6-146.6,735.6-163.8,326.5-21.6,656.6-43,981.2-11.5,253.4,24.7,630.8,91,1296.5-192.9V452.6c-178.3,134.9-669.7,511.1-887.6,615.8-217.9,104.8-480,177.1-746.8,167.5-132.5-4.8-261.6-29.3-393.3-39.7-451.6-35.5-924.2,111.8-1178.2,367.2-39.9,40.1-80.2,85.7-147.9,101.2-96.6,22.2-193.2-26.6-281.2-61.5-165.5-65.8-367.4-88.4-555.4-62.3"/>
            <path class="cls-1" d="M0,3175.5c6.9,135.1,78.7,242.1,213.3,262.9,12.4,2,25.4,3.1,38.9,3.6,126,3.7,354-65.1,498.7-408.6,79.8-189.3,138.2-383.9,256.2-563.8,117.9-179.9,311.3-348.1,582.7-418.6,271.4-70.4,838,40.1,1056.9,466.7,82.6,12.5,166.4,18.9,252.1,15.1,234.8-10.5,447.2-97.8,628.5-199.3,418.9-234.4,858-656.7,1149.8-967.1v-73.2c-665.6,283.8-1043.1,217.5-1296.5,192.9-324.7-31.5-654.7-10.1-981.2,11.5-262,17.2-545.1,40.8-735.6,163.8-84.3,54.5-146.2,126.5-246.6,166.5-222.9,88.6-498.4-18.6-708.4-120.4-209.9-102-492.7-204.4-708.8-108.5v1530.2"/>
            <path class="cls-2" d="M802.4,2908.6c65.8-155.9,257.8-288.7,481.7-352.5,208.8-269.7,513.2-229.1,787.4-170.7,192.4,40.9,380.9,103.2,575.2,132.4-218.9-426.6-785.6-537.1-1056.9-466.7-271.4,70.5-464.7,238.7-582.7,418.6-93.1,142-149.1,293.2-207.8,443.7l3.1-4.7h0v-.1h0Z"/>
            <path class="cls-3" d="M2646.7,2517.7c82.6,12.5,166.4,18.9,252.1,15.1,234.8-10.5,447.2-97.8,628.5-199.3,418.9-234.4,858-656.7,1149.8-967.1v919.9c-234.8,252.2-802.7,537.8-1233.5,599-430.7,61.3-896.6-.6-1261.3-167.4-125.5-57.3-240.4-126.8-378.4-168.8-164.5-50.1-351.2-41.2-519.8,6.9,208.8-269.7,513.2-229.1,787.4-170.7,192.4,40.9,380.9,103.2,575.2,132.4h0Z"/>
            <path class="cls-4" d="M799.3,2913.3c-15.7,40.1-31.5,80.2-48.4,120.1-144.7,343.5-372.7,412.3-498.7,408.6-13.5-.4-26.6-1.6-38.9-3.6-10.6,79.1,170.2,187.9,473.8,238.1,597,98.8,1442.3,51.5,2761.5-386.6,17.3-216.4,414.4-389.8,697.1-288.4,468.5,168.2,531.4,354.5,531.4,354.5v-1069.7c-234.8,252.2-802.7,537.8-1233.5,599-430.7,61.3-896.6-.6-1261.3-167.4-125.5-57.3-240.4-126.8-378.4-168.8-164.5-50.1-351.2-41.2-519.8,6.9-223.9,63.8-415.9,196.7-481.7,352.5l-3.1,4.7h0v.1h0Z"/>
            <path class="cls-5" d="M2588.8,6473.7c4.6-14.2,8.6-29.4,1.2-43-9.9-17.7-36-28.2-58.7-39.1-141.4-68.7-185.1-214.4-94.5-315,18.2-20,41.2-39.4,45.4-62.7,9.4-51.7-72.3-86.3-136.8-114.6-86.4-38-166-95.8-168.4-165.5-4-111.3,180.6-179.8,342.6-198.7,162-19,344.4-19.7,462.6-97.1,106.1-69.6,175-160.3,108.4-353.5-86.9,115.3,0,0,0,0,11.4-15,21.3-30.6,29.7-46.8,49.7-96.1,39.3-200.9,28.2-302.4-21.8-201.2-43.7-402.5-65.5-603.7-12.2-113.2-15.5-243,106.9-320.5,65.5-41.6,158.4-60.7,218.6-105.8,141.7-106,28.9-272.6,40.2-415.4-1319.2,438.1-2164.5,485.4-2761.5,386.6-303.5-50.2-484.3-159-473.8-238.1-134.6-20.8-206.4-127.8-213.4-262.9v2882c521.8,487.4,1133.2,383.8,1576.8,275.1,185.1-45.4,407.6-20,544.9,75.6,102,71.1,163.8,175.9,300.2,212,32.7,8.7,65.2,12.5,97.5,12.6,29-51.7,52.3-104.9,69.5-159.1h-.2.1,0Z"/>
            <path class="cls-6" d="M3090.5,5084.5c66.6,193.2-2.3,283.9-108.4,353.5-118.1,77.4-300.6,78.1-462.6,97.1-162,18.9-346.6,87.4-342.6,198.7,2.5,69.7,82,127.5,168.4,165.5,64.5,28.4,146.2,62.9,136.8,114.6-4.1,23.2-27.2,42.7-45.4,62.7-90.6,100.6-46.8,246.3,94.5,315,22.8,11,48.8,21.5,58.7,39.1,7.4,13.6,3.5,28.8-1.2,43-17.2,54.2-40.4,107.4-69.5,159.1,164,.7,325.3-93.5,487.2-142.7,209-63.6,450.7-51.3,675.9-22,225,29.2,401.2,95.1,994.7,70.7v-3182.8s-62.8-186.4-531.4-354.5c-282.8-101.5-679.8,72-697.1,288.4-11.4,142.8,101.5,309.4-40.2,415.4-60.2,45.1-153.1,64.2-218.6,105.8-122.4,77.4-119.1,207.3-106.9,320.5,21.8,201.2,43.7,402.5,65.5,603.7,11.1,101.5,21.4,206.3-28.2,302.4-8.4,16.2-18.3,31.8-29.7,46.8h.1,0Z"/>
            <path class="cls-7" d="M2508.7,6651.4c3.6-6.1,7.3-12.3,10.7-18.6-32.3-.1-64.8-3.9-97.5-12.6-136.4-36.1-198.3-140.9-300.2-212-137.3-95.6-359.8-121-544.9-75.6C1133.2,6441.3,521.8,6544.9,0,6057.5v593.9h2508.7Z"/>
            <path class="cls-10" d="M2508.7,6651.4c3.6-6.1,7.3-12.3,10.7-18.6,164,.7,325.3-93.5,487.1-142.7,209-63.6,450.7-51.3,675.9-22,225,29.2,401.2,95.1,994.7,70.7v112.5h-2168.5l.1.1h0Z"/>
          </g>
        </g>
      </g>
    </g>
  </g>
</svg>