<?xml version="1.0" encoding="UTF-8"?>
<svg id="Lager_1" xmlns="http://www.w3.org/2000/svg" xmlns:xlink="http://www.w3.org/1999/xlink" viewBox="0 0 4173 5934.38">
  <defs>
    <style>
      .cls-1 {
        fill: url(#Namnlös_övertoning_3);
      }

      .cls-2 {
        fill: url(#Namnlös_övertoning_4);
      }

      .cls-3 {
        fill: url(#Namnlös_övertoning_5);
      }

      .cls-4 {
        fill: url(#Namnlös_övertoning_6);
      }

      .cls-5 {
        fill: url(#Namnlös_övertoning_7);
      }

      .cls-6 {
        fill: url(#Namnlös_övertoning_8);
      }

      .cls-7 {
        fill: url(#Namnlös_övertoning_9);
      }

      .cls-8 {
        fill: url(#Namnlös_övertoning_2);
      }

      .cls-9 {
        fill: url(#Namnlös_övertoning_11);
      }

      .cls-10 {
        fill: url(#Namnlös_övertoning_10);
      }

      .cls-11 {
        fill: url(#Namnlös_övertoning);
      }
    </style>
    <linearGradient id="Namnlös_övertoning" data-name="Namnlös övertoning" x1="0" y1="2964.7" x2="4172.81" y2="2964.7" gradientTransform="translate(0 5931.89) scale(1 -1)" gradientUnits="userSpaceOnUse">
      <stop offset="0" stop-color="#c9c5c5"/>
      <stop offset="1" stop-color="#c9c5c5"/>
    </linearGradient>
    <linearGradient id="Namnlös_övertoning_2" data-name="Namnlös övertoning 2" x1="-4151.18" y1="13724.32" x2="-2568.88" y2="13724.32" gradientTransform="translate(14518.21 3775.99) rotate(90) scale(.89)" gradientUnits="userSpaceOnUse">
      <stop offset=".3" stop-color="#cd921f"/>
      <stop offset=".7" stop-color="#c9c5c5"/>
    </linearGradient>
    <linearGradient id="Namnlös_övertoning_3" data-name="Namnlös övertoning 3" x1="-3309.99" y1="16280.64" x2="-3309.99" y2="11603.44" gradientTransform="translate(14518.21 3775.99) rotate(90) scale(.89)" gradientUnits="userSpaceOnUse">
      <stop offset=".3" stop-color="#cd921f"/>
      <stop offset=".7" stop-color="#c9c5c5"/>
    </linearGradient>
    <linearGradient id="Namnlös_övertoning_4" data-name="Namnlös övertoning 4" x1="-693.07" y1="16028.52" x2="-4031.95" y2="12689.74" gradientTransform="translate(14518.21 3775.99) rotate(90) scale(.89)" gradientUnits="userSpaceOnUse">
      <stop offset=".3" stop-color="#cd921f"/>
      <stop offset=".7" stop-color="#c9c5c5"/>
    </linearGradient>
    <linearGradient id="Namnlös_övertoning_5" data-name="Namnlös övertoning 5" x1="-2207.52" y1="14585.34" x2="-1325.58" y2="14585.34" gradientTransform="translate(14518.21 3775.99) rotate(90) scale(.89)" gradientUnits="userSpaceOnUse">
      <stop offset=".3" stop-color="#cd921f"/>
      <stop offset=".7" stop-color="#c9c5c5"/>
    </linearGradient>
    <linearGradient id="Namnlös_övertoning_6" data-name="Namnlös övertoning 6" x1="-914.89" y1="14228.45" x2="-3206.19" y2="11937.15" gradientTransform="translate(14518.21 3775.99) rotate(90) scale(.89)" gradientUnits="userSpaceOnUse">
      <stop offset=".3" stop-color="#cd921f"/>
      <stop offset=".7" stop-color="#c9c5c5"/>
    </linearGradient>
    <linearGradient id="Namnlös_övertoning_7" data-name="Namnlös övertoning 7" x1="-1952.68" y1="13861.58" x2="-519.2" y2="13861.58" gradientTransform="translate(14518.21 3775.99) rotate(90) scale(.89)" gradientUnits="userSpaceOnUse">
      <stop offset=".3" stop-color="#cd921f"/>
      <stop offset=".7" stop-color="#c9c5c5"/>
    </linearGradient>
    <linearGradient id="Namnlös_övertoning_8" data-name="Namnlös övertoning 8" x1="673.6" y1="12800.01" x2="673.6" y2="16280.54" gradientTransform="translate(14518.21 3775.99) rotate(90) scale(.89)" gradientUnits="userSpaceOnUse">
      <stop offset=".3" stop-color="#cd921f"/>
      <stop offset=".7" stop-color="#c9c5c5"/>
    </linearGradient>
    <linearGradient id="Namnlös_övertoning_9" data-name="Namnlös övertoning 9" x1="2281.03" y1="13874.23" x2="-448.86" y2="11144.34" gradientTransform="translate(14518.21 3775.99) rotate(90) scale(.89)" gradientUnits="userSpaceOnUse">
      <stop offset=".3" stop-color="#cd921f"/>
      <stop offset=".7" stop-color="#c9c5c5"/>
    </linearGradient>
    <linearGradient id="Namnlös_övertoning_10" data-name="Namnlös övertoning 10" x1="1818.52" y1="15049.78" x2="2412.42" y2="15049.78" gradientTransform="translate(14518.21 3775.99) rotate(90) scale(.89)" gradientUnits="userSpaceOnUse">
      <stop offset=".3" stop-color="#cd921f"/>
      <stop offset=".7" stop-color="#c9c5c5"/>
    </linearGradient>
    <linearGradient id="Namnlös_övertoning_11" data-name="Namnlös övertoning 11" x1="2205.19" y1="12710.87" x2="2412.42" y2="12710.87" gradientTransform="translate(14518.21 3775.99) rotate(90) scale(.89)" gradientUnits="userSpaceOnUse">
      <stop offset=".3" stop-color="#cd921f"/>
      <stop offset=".7" stop-color="#c9c5c5"/>
    </linearGradient>
  </defs>
  <rect class="cls-11" y="0" width="4172.81" height="5934.38"/>
  <g id="Lager_1-2">
    <g id="Lager_1-2-2">
      <g id="Lager_1-2-2-2">
        <g>
          <path class="cls-8" d="M434.23,1374.61c167.73-23.29,347.87-3.12,495.53,55.58,78.51,31.23,164.7,74.68,250.89,54.87,60.4-13.83,96.36-54.51,131.96-90.29,226.71-227.87,648.27-359.2,1051.19-327.62,117.5,9.19,232.77,31.14,350.9,35.42,238.13,8.57,471.88-55.94,666.29-149.44,194.41-93.5,632.93-429.06,791.92-549.42V78.34c-483.3,10.71-1280.84,38.19-1760.04,82.26-150.25,13.83-337.79,55.23-347.07,157.74-2.68,29.89,11.87,61.03-2.59,89.4-40.51,79.49-226.71,45.95-328.24,94.31-46.39,22.04-71.55,60.49-118.57,81.9-86.19,39.08-200.92,6.33-304.6,7.67-132.94,1.7-253.12,64.24-315.21,143.91-62.1,79.58-73.25,173.44-60.76,263.11,5.26,38.01,12.04,81.64-26.68,109.38-25.43,18.2-63.97,24.18-99.3,31.67-164.34,34.71-303.08,121.34-367.32,229.56"/>
          <path class="cls-1" d="M442.62,1369.08c64.24-108.22,202.98-194.86,367.32-229.56,35.33-7.49,73.87-13.47,99.3-31.67,38.72-27.75,32.03-71.38,26.68-109.38-12.49-89.67-1.34-183.44,60.76-263.11,62.1-79.58,182.28-142.22,315.21-143.91,103.67-1.25,218.41,31.49,304.6-7.67,47.11-21.32,72.27-59.78,118.57-81.9,101.53-48.36,287.73-14.81,328.24-94.31,14.45-28.37-.18-59.42,2.59-89.4,9.28-102.51,196.82-143.91,347.07-157.74,479.2-44.07,1276.65-71.55,1760.04-82.26V0H0v1426.63c192.8-85.65,445.12,5.8,632.48,96.71,187.36,90.92,433.16,186.56,632.03,107.42,89.67-35.69,144.8-99.93,220.02-148.55,169.96-109.74,422.55-130.8,656.3-146.14,291.3-19.27,585.82-38.36,875.43-10.26,226.08,22.04,562.8,81.19,1156.74-172.11V403.81c-159.08,120.36-597.51,456-791.92,549.42-194.41,93.5-428.26,158.01-666.29,149.44-118.22-4.28-233.4-26.14-350.9-35.42-402.92-31.67-824.57,99.75-1051.19,327.62-35.6,35.78-71.55,76.46-131.96,90.29-86.19,19.81-172.37-23.73-250.89-54.87-147.66-58.71-327.79-78.87-495.53-55.58"/>
          <path class="cls-2" d="M0,2833.18c6.16,120.54,70.22,216,190.31,234.56,11.06,1.78,22.66,2.77,34.71,3.21,112.42,3.3,315.84-58.08,444.94-364.55,71.2-168.89,123.3-342.52,228.58-503.02,105.19-160.51,277.74-310.57,519.88-373.47,242.14-62.81,747.66,35.78,942.97,416.39,73.7,11.15,148.46,16.86,224.92,13.47,209.49-9.37,398.99-87.26,560.75-177.82,373.74-209.13,765.51-585.91,1025.85-862.85v-65.31c-593.85,253.21-930.65,194.05-1156.74,172.11-289.7-28.1-584.12-9.01-875.43,10.26-233.76,15.35-486.34,36.4-656.3,146.14-75.21,48.62-130.44,112.86-220.02,148.55-198.87,79.05-444.67-16.59-632.03-107.42C445.12,1432.43,192.81,1341.07,0,1426.63v1365.24"/>
          <path class="cls-3" d="M715.9,2595.05c58.71-139.09,230.01-257.58,429.77-314.5,186.29-240.63,457.88-204.4,702.52-152.3,171.66,36.49,339.84,92.07,513.19,118.13-195.3-380.61-700.91-479.2-942.97-416.39-242.14,62.9-414.61,212.97-519.88,373.47-83.06,126.69-133.03,261.59-185.4,395.87l2.77-4.19h0v-.09h0Z"/>
          <path class="cls-4" d="M2361.39,2246.29c73.7,11.15,148.46,16.86,224.92,13.47,209.49-9.37,398.99-87.26,560.75-177.82,373.74-209.13,765.51-585.91,1025.85-862.85v820.73c-209.49,225.01-716.17,479.83-1100.53,534.43-384.27,54.69-799.95-.54-1125.33-149.35-111.97-51.12-214.48-113.13-337.61-150.6-146.77-44.7-313.34-36.76-463.77,6.16,186.29-240.63,457.88-204.4,702.52-152.3,171.66,36.49,339.84,92.07,513.19,118.13h.01Z"/>
          <path class="cls-5" d="M713.14,2599.25c-14.01,35.78-28.1,71.55-43.18,107.15-129.1,306.47-332.52,367.85-444.94,364.55-12.04-.36-23.73-1.43-34.71-3.21-9.46,70.57,151.85,167.64,422.72,212.43,532.64,88.15,1286.82,45.95,2463.81-344.92,15.44-193.07,369.73-347.78,621.95-257.31,418,150.07,474.11,316.28,474.11,316.28v-954.39c-209.49,225.01-716.17,479.83-1100.53,534.43-384.27,54.69-799.95-.54-1125.33-149.35-111.97-51.12-214.48-113.13-337.61-150.6-146.77-44.7-313.34-36.76-463.77,6.16-199.76,56.92-371.07,175.5-429.77,314.5l-2.77,4.19h0v.09h.02Z"/>
          <path class="cls-6" d="M2309.73,5775.83c4.1-12.67,7.67-26.23,1.07-38.36-8.83-15.79-32.12-25.16-52.37-34.89-126.16-61.29-165.15-191.29-84.31-281.04,16.24-17.84,36.76-35.15,40.51-55.94,8.39-46.13-64.51-77-122.05-102.25-77.09-33.9-148.11-85.47-150.25-147.66-3.57-99.3,161.13-160.42,305.67-177.28,144.54-16.95,307.27-17.58,412.73-86.63,94.66-62.1,156.13-143.02,96.71-315.39-77.53,102.87,0,0,0,0,10.17-13.38,19-27.3,26.5-41.75,44.34-85.74,35.06-179.24,25.16-269.8-19.45-179.51-38.99-359.11-58.44-538.62-10.88-101-13.83-216.8,95.38-285.95,58.44-37.12,141.32-54.16,195.03-94.39,126.42-94.57,25.78-243.21,35.87-370.62-1176.99,390.87-1931.17,433.07-2463.81,344.92-270.78-44.79-432.09-141.86-422.72-212.43-120.09-18.56-184.15-114.02-190.31-234.56v2571.32c465.55,434.86,1011.04,342.43,1406.82,245.44,165.15-40.51,363.66-17.84,486.16,67.45,91,63.44,146.14,156.94,267.84,189.15,29.17,7.76,58.17,11.15,86.99,11.24,25.87-46.13,46.66-93.59,62.01-141.95h-.19,0Z"/>
          <path class="cls-7" d="M2757.34,4536.39c59.42,172.37-2.05,253.3-96.71,315.39-105.37,69.06-268.2,69.68-412.73,86.63-144.54,16.86-309.24,77.98-305.67,177.28,2.23,62.19,73.16,113.76,150.25,147.66,57.55,25.34,130.44,56.12,122.05,102.25-3.66,20.7-24.27,38.1-40.51,55.94-80.83,89.76-41.75,219.75,84.31,281.04,20.34,9.81,43.54,19.18,52.37,34.89,6.6,12.13,3.12,25.7-1.07,38.36-15.35,48.36-36.04,95.82-62.01,141.95,146.32.62,290.23-83.42,434.68-127.32,186.47-56.74,402.11-45.77,603.04-19.63,200.74,26.05,357.95,84.85,887.47,63.08v-2839.69s-56.03-166.31-474.11-316.28c-252.31-90.56-606.52,64.24-621.95,257.31-10.17,127.41,90.56,276.05-35.87,370.62-53.71,40.24-136.6,57.28-195.03,94.39-109.21,69.06-106.26,184.95-95.38,285.95,19.45,179.51,38.99,359.11,58.44,538.62,9.9,90.56,19.09,184.06-25.16,269.8-7.49,14.45-16.33,28.37-26.5,41.75h.09,0Z"/>
          <path class="cls-10" d="M2238.26,5934.38c3.21-5.44,6.51-10.97,9.55-16.6-28.82-.09-57.81-3.48-86.99-11.24-121.7-32.21-176.92-125.71-267.84-189.15-122.5-85.29-321.01-107.96-486.16-67.45-395.78,96.98-941.27,189.41-1406.82-245.44v529.88h2238.26Z"/>
          <path class="cls-9" d="M2238.26,5934.38c3.21-5.44,6.51-10.97,9.55-16.6,146.32.62,290.23-83.42,434.59-127.32,186.47-56.74,402.11-45.77,603.04-19.63,200.74,26.05,357.95,84.85,887.47,63.08v100.37h-1934.74l.09.09h0Z"/>
        </g>
      </g>
    </g>
  </g>
</svg>