<?xml version="1.0" encoding="UTF-8"?>
<svg id="Layer_1" data-name="Layer 1" xmlns="http://www.w3.org/2000/svg" xmlns:xlink="http://www.w3.org/1999/xlink" version="1.1" viewBox="0 0 3236 3836.5">
  <defs>
    <style>
      .cls-1 {
        clip-path: url(#clippath);
      }

      .cls-2 {
        fill: none;
      }

      .cls-2, .cls-3, .cls-4, .cls-5, .cls-6 {
        stroke-width: 0px;
      }

      .cls-3 {
        fill: url(#linear-gradient);
      }

      .cls-4 {
        fill: #c9c5c5;
      }

      .cls-5 {
        fill: url(#linear-gradient-2);
      }

      .cls-6 {
        fill: url(#linear-gradient-3);
      }
    </style>
    <clipPath id="clippath">
      <rect class="cls-2" y="-767.1" width="3236" height="4603.6"/>
    </clipPath>
    <linearGradient id="linear-gradient" x1="2863.2" y1="-595" x2="2863.2" y2="3328.2" gradientTransform="translate(0 3067.7) scale(1 -1)" gradientUnits="userSpaceOnUse">
      <stop offset=".5" stop-color="#c9c5c5"/>
      <stop offset=".9" stop-color="#03f9be"/>
    </linearGradient>
    <linearGradient id="linear-gradient-2" x1="3256.5" y1="-890.9" x2="2549.3" y2="3119.9" gradientTransform="translate(0 3067.7) scale(1 -1)" gradientUnits="userSpaceOnUse">
      <stop offset=".2" stop-color="#c9c5c5"/>
      <stop offset=".8" stop-color="#03f9be"/>
    </linearGradient>
    <linearGradient id="linear-gradient-3" x1="2828.6" y1="2755.8" x2="2828.6" y2="-816.5" gradientTransform="translate(0 3067.7) scale(1 -1)" gradientUnits="userSpaceOnUse">
      <stop offset=".4" stop-color="#c9c5c5"/>
      <stop offset="1" stop-color="#03f9be"/>
    </linearGradient>
  </defs>
  <g id="Lager_1" data-name="Lager 1">
    <g class="cls-1">
      <g>
        <rect class="cls-4" y="-830" width="3326.9" height="4603.2"/>
        <path class="cls-3" d="M-264.9,307.7C-108.7,114.2,437.4,115.8,634.7,184c171.1,59.2,309.8,183.9,390.8,351.1,4.8,9.9,9.4,19.5,14,29,64.7,134.1,97.9,199.8,146.7,227.6,55.4,31.6,166.6,36.2,371.8,15.6,148.5-14.9,289.8,29.8,408.6,129.5,81.9,68.7,152,163.4,202.6,273.9,47.2,103,76.5,216.9,84.8,329.5,11.9,161.1-47.3,578.7-358,1005.9,0,0,561.5,338.4,878,312.6s1302.7-563.6,1302.7-563.6c-87.2-98.8,971.6-778.1,957.2-939-10-112.4,383.4-67,413.3-176.2,32-117.2-54.5-86,15.2-167.1,101.1-117.6-1419.5-411-1270.6-420.3,205.9-12.9,314.9-35.5,364.4-75.6,43.6-35.4,65.8-105.6,107.9-248.4,3-10,6-20.3,9.1-30.8,52.7-178.2,169.5-323.7,328.7-409.8,183.6-99.3,413.7-115.4,647.7-45.3l341.6,3862-6129.4,18.2L-264.9,307.7h0Z"/>
        <path class="cls-5" d="M2913.2,2807.4c36.9-33.1,68.2-101.7,101.5-174.4,39.8-87.1,84.9-185.8,158.9-268.7,90.8-101.8,209.1-159.9,351.8-172.6,49.9-4.4,104.6-3.7,162.6-2.8,125.8,1.8,282.5,4,346.7-58.5,41.1-40,41.9-110,42.2-133.1,1.4-114.1,22.7-212,63.2-291.1,40-78.1,99.5-138,172-173.2,126.8-61.6,285-43,402.9,47.3,96.2,73.7,174.9,103.3,221.5,83.3,32.9-14.1,66.1-57.7,93.6-122.9,35.9-85,62.3-204.2,78.3-354.2,14.6-136.6,56.4-258.2,124.4-361.4,63.2-96.1,147.9-174.8,251.8-234,139.2-79.4,309.8-121.3,493.8-121.3s5.6,0,8.4,0c174.2,1.2,347.9,39,502.3,109.2l-2540.5,3257.2-4546.1-24.3-216.1-3232.9c154.3-70.3,328-108,502.3-109.2,2.8,0,5.6,0,8.4,0,184,0,354.6,41.9,493.8,121.3,103.8,59.2,188.5,137.9,251.8,234,67.9,103.2,109.7,224.8,124.4,361.4,17.5,164.1,60.1,649,393.4,393.7,117.9-90.3,276.1-108.9,402.9-47.3,72.5,35.2,131.9,95.1,172,173.2,40.5,79.1,61.8,177,63.2,291.1.3,23,1.2,93.1,42.2,133.1,64.2,62.5,220.8,60.3,346.7,58.5,57.9-.8,112.6-1.6,162.6,2.8,142.7,12.7,261.1,70.7,351.8,172.6,73.9,82.9,119.1,181.6,158.9,268.7,33.2,72.7,64.6,141.4,101.5,174.4,5,4.5,28.8,25.7,74.1,25.7s70.4-19.8,77-25.7h0Z"/>
        <path class="cls-6" d="M2612.1,3219.7c-112.2-137.8-372.8-350.7-857.6-228.8-353.5,88.9-477.1,35.5-553.9-72-92-128.8-82.5-237.9-69.3-389,12.9-147.7,27.5-315.1-52.4-522.5-76.6-198.8-206.1-367.5-384.9-501.4-136.8-102.4-298.8-182.3-481.7-237.3-115.9-34.9-148-74.5-162-101.3-22.4-42.8-25-109.3-28-186.3-1.7-44.5-3.7-95-9.8-148.2-22-190.8-147.9-371.8-320.8-461.1-161.1-83.2-340.3-79.4-504.6,10.7L-110.5,3845.3l2857.7,38.8c40-82.6,49-195.8,25.4-318.8-24.1-125.4-81-248.1-160.4-345.6h0ZM5965.6,371.7c-172.9,89.3-298.8,270.3-320.8,461.1-6.1,53.2-8.1,103.7-9.8,148.2-3,77-5.6,143.4-28,186.3-14,26.8-46.1,66.4-162,101.3-182.9,55.1-345,134.9-481.7,237.3-178.8,133.9-308.2,302.6-384.9,501.4-80,207.4-65.3,374.8-52.4,522.5,13.2,151,22.7,260.1-69.3,389-76.8,107.5-200.4,160.9-553.9,72-484.8-121.9-745.4,91.1-857.6,228.8-79.4,97.5-136.4,220.2-160.4,345.6-23.6,123-14.6,236.2,25.4,318.8h2857.7l702.5-3501.7c-164.3-90.2-343.5-94-504.6-10.7h0Z"/>
      </g>
    </g>
  </g>
</svg>