<?xml version="1.0" encoding="UTF-8"?>
<svg xmlns="http://www.w3.org/2000/svg" xmlns:xlink="http://www.w3.org/1999/xlink" version="1.1" viewBox="0 0 4677.2 4677.2">
  <defs>
    <style>
      .cls-1 {
        fill: none;
      }

      .cls-2 {
        fill: #c9c5c5;
      }

      .cls-3 {
        fill: url(#Namnlös_övertoning_6);
      }

      .cls-4 {
        fill: url(#Namnlös_övertoning_7);
      }

      .cls-5 {
        fill: url(#Namnlös_övertoning_8);
      }

      .cls-6 {
        fill: url(#Namnlös_övertoning_9);
      }

      .cls-7 {
        clip-path: url(#clippath);
      }
    </style>
    <clipPath id="clippath">
      <rect class="cls-1" y="0" width="4677.2" height="4677.2"/>
    </clipPath>
    <linearGradient id="Namnlös_övertoning_6" data-name="Namnlös övertoning 6" x1="2339.9" y1="1255.3" x2="2339.9" y2="4240.3" gradientTransform="translate(0 4675.9) scale(1 -1)" gradientUnits="userSpaceOnUse">
      <stop offset="0" stop-color="#c9c5c5"/>
      <stop offset=".7" stop-color="#f0a7ff"/>
    </linearGradient>
    <linearGradient id="Namnlös_övertoning_8" data-name="Namnlös övertoning 8" x1="1113" y1="742.1" x2="1113" y2="3845.5" gradientTransform="translate(0 4675.9) scale(1 -1)" gradientUnits="userSpaceOnUse">
      <stop offset=".3" stop-color="#c9c5c5"/>
      <stop offset="1" stop-color="#f0a7ff"/>
    </linearGradient>
    <linearGradient id="Namnlös_övertoning_7" data-name="Namnlös övertoning 7" x1="3778" y1="832.3" x2="3778" y2="3845.4" gradientTransform="translate(0 4675.9) scale(1 -1)" gradientUnits="userSpaceOnUse">
      <stop offset="0" stop-color="#f0a7ff"/>
      <stop offset=".7" stop-color="#c9c5c5"/>
    </linearGradient>
    <linearGradient id="Namnlös_övertoning_9" data-name="Namnlös övertoning 9" x1="2463.7" y1="-39" x2="2463.7" y2="2535.6" gradientTransform="translate(0 4675.9) scale(1 -1)" gradientUnits="userSpaceOnUse">
      <stop offset="0" stop-color="#f0a7ff"/>
      <stop offset=".9" stop-color="#c9c5c5"/>
    </linearGradient>
  </defs>
  <!-- Generator: Adobe Illustrator 28.6.0, SVG Export Plug-In . SVG Version: 1.2.0 Build 709)  -->
  <g>
    <g id="Lager_1">
      <g id="Lager_1-2" data-name="Lager_1">
        <g class="cls-7">
          <g>
            <rect class="cls-2" y="0" width="4677.2" height="4677.2"/>
            <path class="cls-3" d="M0,836.8c125.1-136.5,562.3-135.4,720.3-87.3,137,41.7,248.1,129.7,312.9,247.8,3.8,7,7.6,13.8,11.2,20.4,51.8,94.6,79.9,138.3,117.5,160.6,145.5,86.4,452-40.4,679.2,239.7,205.2,252.9,126.8,692.3-153.2,840.2s-66.5,610.5,222.7,617.3c-53.6-310.8,270.9-566.3,448.4-596.2,470.3-79.3,790.3,430.6,790.3,430.6,0,0-80.8-341.6,250.7-594.4-200.8-126.8-274.6-374.5-286.2-488-8-79.3.3-162,24.2-239.1,25.6-82.7,68.7-156.6,124.5-213.9,80.9-83,186.7-130.3,306-136.9,164.9-9.1,252.1-25,291.8-53.4,35-25,52.7-74.5,86.4-175.3,2.4-7.1,4.8-14.3,7.3-21.8,42.2-125.7,135.7-228.4,263.2-289.2,147-70.1,331.2-81.4,518.6-32l-58.5,2954.7L-56,3325.6,0,836.8Z"/>
            <path class="cls-5" d="M2515.9,3082.1c-18.9-86.8-63.6-171.7-126-239.2-88.1-95.4-292.8-242.7-673.6-158.4-277.6,61.5-374.7,24.6-435-49.9-72.3-89.2-64.8-164.7-54.4-269.2,10.1-102.2,21.6-218.1-41.2-361.6-60.2-137.6-161.9-254.3-302.3-347-107.4-70.9-234.7-126.2-378.3-164.3-91-24.1-116.2-51.6-127.2-70.1-17.6-29.6-19.7-75.6-22-128.9-1.4-30.8-2.9-65.8-7.7-102.6-17.3-132-116.2-257.3-252-319.1-126.6-57.6-267.3-55-396.3,7.4L251.6,3906.9l2244.4,26.9c31.4-57.2,38.5-766.6,20-851.7h-.1Z"/>
            <path class="cls-4" d="M5227.2,879.3c-129-62.4-269.7-65-396.3-7.4-135.8,61.8-234.7,187.1-252,319.1-4.8,36.8-6.4,71.8-7.7,102.6-2.3,53.3-4.4,99.3-22,128.9-11,18.5-36.2,46-127.2,70.1-143.6,38.1-270.9,93.4-378.3,164.3-140.4,92.7-242.1,209.4-302.3,347-62.8,143.6-51.3,259.4-41.2,361.6,10.4,104.5,17.9,180-54.4,269.2-60.3,74.4-157.4,111.4-435,49.9-380.8-84.4-579.5,68.8-673.6,158.4-373.8,355.9-137.4,943.4-106,1000.6h2244.4l551.7-2964.2h-.1Z"/>
            <path class="cls-6" d="M2522.9,3758c28.9-22.9,53.6-70.4,79.7-120.7,31.3-60.3,66.7-128.6,124.8-186,71.3-70.5,164.2-110.6,276.3-119.4,39.2-3.1,82.2-2.5,127.7-2,98.8,1.2,221.8,2.8,272.3-40.5,32.3-27.7,32.9-76.1,33.2-92.1,1.1-78.9,17.8-146.7,49.7-201.4,31.5-54.1,78.2-95.5,135.1-119.9,99.6-42.6,223.8-29.8,316.4,32.8,75.6,51,137.3,71.5,174,57.7,25.8-9.8,51.9-40,73.6-85.1,28.2-58.8,48.9-141.3,61.5-245.1,11.5-94.5,44.3-178.7,97.7-250.1,49.7-66.5,116.2-121,197.7-162,109.4-55,243.3-83.9,387.8-83.9s4.4,0,6.6,0c136.8.8,273.2,27,394.5,75.6l-568.4,2461.2L-16.2,4714.9l-387.9-2498.9c121.2-48.6,257.6-74.8,394.5-75.6H-3c144.5,0,278.5,29,387.8,83.9,81.6,41,148.1,95.5,197.7,162,53.3,71.4,86.2,155.6,97.7,250.1,13.8,113.6,47.2,449.2,309,272.5,92.6-62.5,216.8-75.4,316.4-32.8,56.9,24.3,103.6,65.8,135.1,119.9,31.8,54.7,48.5,122.5,49.7,201.4.2,15.9.9,64.4,33.2,92.1,50.4,43.2,173.4,41.7,272.3,40.5,45.5-.6,88.5-1.1,127.7,2,112.1,8.8,205,49,276.3,119.4,58.1,57.4,93.5,125.7,124.8,186,26.1,50.3,50.7,97.8,79.7,120.7,3.9,3.1,22.6,17.8,58.2,17.8s55.3-13.7,60.5-17.8h-.2Z"/>
          </g>
        </g>
      </g>
    </g>
  </g>
</svg>